<?xml version="1.0" encoding="UTF-8"?>
<svg xmlns="http://www.w3.org/2000/svg" xmlns:xlink="http://www.w3.org/1999/xlink" width="288pt" height="216pt" viewBox="0 0 288 216" version="1.1">
<defs>
<g>
<symbol overflow="visible" id="glyph0-0">
<path style="stroke:none;" d=""/>
</symbol>
<symbol overflow="visible" id="glyph0-1">
<path style="stroke:none;" d="M 4.453125 -3 C 4.453125 -5.15625 3.78125 -6.234375 2.421875 -6.234375 C 1.078125 -6.234375 0.375 -5.140625 0.375 -3.046875 C 0.375 -0.953125 1.078125 0.125 2.421875 0.125 C 3.734375 0.125 4.453125 -0.953125 4.453125 -3 Z M 3.671875 -3.0625 C 3.671875 -1.296875 3.265625 -0.515625 2.40625 -0.515625 C 1.578125 -0.515625 1.171875 -1.34375 1.171875 -3.046875 C 1.171875 -4.75 1.578125 -5.546875 2.421875 -5.546875 C 3.25 -5.546875 3.671875 -4.734375 3.671875 -3.0625 Z M 3.671875 -3.0625 "/>
</symbol>
<symbol overflow="visible" id="glyph0-2">
<path style="stroke:none;" d="M 1.6875 0 L 1.6875 -0.921875 L 0.765625 -0.921875 L 0.765625 0 Z M 1.6875 0 "/>
</symbol>
<symbol overflow="visible" id="glyph0-3">
<path style="stroke:none;" d="M 4.5 -4.40625 C 4.5 -5.46875 3.671875 -6.234375 2.5 -6.234375 C 1.21875 -6.234375 0.484375 -5.59375 0.4375 -4.078125 L 1.21875 -4.078125 C 1.28125 -5.125 1.703125 -5.5625 2.46875 -5.5625 C 3.171875 -5.5625 3.703125 -5.0625 3.703125 -4.390625 C 3.703125 -3.890625 3.40625 -3.46875 2.859375 -3.15625 L 2.046875 -2.703125 C 0.75 -1.96875 0.375 -1.375 0.296875 0 L 4.453125 0 L 4.453125 -0.765625 L 1.171875 -0.765625 C 1.25 -1.28125 1.53125 -1.59375 2.296875 -2.046875 L 3.171875 -2.53125 C 4.046875 -2.984375 4.5 -3.640625 4.5 -4.40625 Z M 4.5 -4.40625 "/>
</symbol>
<symbol overflow="visible" id="glyph0-4">
<path style="stroke:none;" d="M 4.515625 -2.0625 C 4.515625 -3.296875 3.6875 -4.109375 2.5 -4.109375 C 2.0625 -4.109375 1.703125 -4 1.34375 -3.734375 L 1.59375 -5.34375 L 4.1875 -5.34375 L 4.1875 -6.109375 L 0.96875 -6.109375 L 0.5 -2.84375 L 1.21875 -2.84375 C 1.578125 -3.265625 1.875 -3.421875 2.359375 -3.421875 C 3.1875 -3.421875 3.71875 -2.890625 3.71875 -1.96875 C 3.71875 -1.0625 3.203125 -0.546875 2.359375 -0.546875 C 1.6875 -0.546875 1.265625 -0.890625 1.078125 -1.59375 L 0.3125 -1.59375 C 0.5625 -0.359375 1.265625 0.125 2.375 0.125 C 3.640625 0.125 4.515625 -0.75 4.515625 -2.0625 Z M 4.515625 -2.0625 "/>
</symbol>
<symbol overflow="visible" id="glyph0-5">
<path style="stroke:none;" d="M 4.578125 -5.453125 L 4.578125 -6.109375 L 0.40625 -6.109375 L 0.40625 -5.34375 L 3.78125 -5.34375 C 2.53125 -3.78125 1.65625 -1.953125 1.21875 0 L 2.046875 0 C 2.390625 -2.015625 3.265625 -3.890625 4.578125 -5.453125 Z M 4.578125 -5.453125 "/>
</symbol>
<symbol overflow="visible" id="glyph0-6">
<path style="stroke:none;" d="M 3.046875 0 L 3.046875 -6.234375 L 2.546875 -6.234375 C 2.265625 -5.28125 2.09375 -5.140625 0.890625 -5 L 0.890625 -4.4375 L 2.28125 -4.4375 L 2.28125 0 Z M 3.046875 0 "/>
</symbol>
<symbol overflow="visible" id="glyph0-7">
<path style="stroke:none;" d="M 4.578125 -1.5 L 4.578125 -2.1875 L 3.65625 -2.1875 L 3.65625 -6.234375 L 3.078125 -6.234375 L 0.25 -2.3125 L 0.25 -1.5 L 2.875 -1.5 L 2.875 0 L 3.65625 0 L 3.65625 -1.5 Z M 2.875 -2.1875 L 0.921875 -2.1875 L 2.875 -4.921875 Z M 2.875 -2.1875 "/>
</symbol>
<symbol overflow="visible" id="glyph0-8">
<path style="stroke:none;" d="M 4.515625 -1.9375 C 4.515625 -3.09375 3.71875 -3.875 2.609375 -3.875 C 1.984375 -3.875 1.5 -3.640625 1.171875 -3.1875 C 1.171875 -4.703125 1.671875 -5.546875 2.5625 -5.546875 C 3.109375 -5.546875 3.484375 -5.203125 3.609375 -4.609375 L 4.375 -4.609375 C 4.234375 -5.625 3.5625 -6.234375 2.609375 -6.234375 C 1.15625 -6.234375 0.375 -5.015625 0.375 -2.84375 C 0.375 -0.890625 1.046875 0.125 2.46875 0.125 C 3.65625 0.125 4.515625 -0.71875 4.515625 -1.9375 Z M 3.71875 -1.875 C 3.71875 -1.09375 3.1875 -0.546875 2.484375 -0.546875 C 1.765625 -0.546875 1.21875 -1.125 1.21875 -1.921875 C 1.21875 -2.6875 1.734375 -3.1875 2.5 -3.1875 C 3.25 -3.1875 3.71875 -2.703125 3.71875 -1.875 Z M 3.71875 -1.875 "/>
</symbol>
<symbol overflow="visible" id="glyph0-9">
<path style="stroke:none;" d="M 4.515625 -1.765625 C 4.515625 -2.453125 4.15625 -2.9375 3.4375 -3.28125 C 4.078125 -3.671875 4.296875 -3.984375 4.296875 -4.578125 C 4.296875 -5.546875 3.53125 -6.234375 2.421875 -6.234375 C 1.3125 -6.234375 0.546875 -5.546875 0.546875 -4.578125 C 0.546875 -4 0.75 -3.671875 1.390625 -3.28125 C 0.671875 -2.9375 0.328125 -2.453125 0.328125 -1.765625 C 0.328125 -0.625 1.1875 0.125 2.421875 0.125 C 3.65625 0.125 4.515625 -0.625 4.515625 -1.765625 Z M 3.5 -4.5625 C 3.5 -3.96875 3.0625 -3.59375 2.421875 -3.59375 C 1.765625 -3.59375 1.34375 -3.96875 1.34375 -4.5625 C 1.34375 -5.15625 1.765625 -5.546875 2.421875 -5.546875 C 3.078125 -5.546875 3.5 -5.15625 3.5 -4.5625 Z M 3.71875 -1.75 C 3.71875 -1.015625 3.1875 -0.546875 2.40625 -0.546875 C 1.640625 -0.546875 1.125 -1.015625 1.125 -1.75 C 1.125 -2.484375 1.640625 -2.9375 2.421875 -2.9375 C 3.1875 -2.9375 3.71875 -2.484375 3.71875 -1.75 Z M 3.71875 -1.75 "/>
</symbol>
<symbol overflow="visible" id="glyph1-0">
<path style="stroke:none;" d=""/>
</symbol>
<symbol overflow="visible" id="glyph1-1">
<path style="stroke:none;" d="M 7.1875 0 L 4.359375 -8.015625 L 3.046875 -8.015625 L 0.1875 0 L 1.28125 0 L 2.125 -2.40625 L 5.21875 -2.40625 L 6.03125 0 Z M 4.921875 -3.265625 L 2.375 -3.265625 L 3.703125 -6.921875 Z M 4.921875 -3.265625 "/>
</symbol>
<symbol overflow="visible" id="glyph1-2">
<path style="stroke:none;" d="M 5.375 -0.953125 L 5.375 -5.765625 L 4.53125 -5.765625 L 4.53125 -4.921875 C 4.0625 -5.609375 3.515625 -5.921875 2.765625 -5.921875 C 1.3125 -5.921875 0.3125 -4.703125 0.3125 -2.828125 C 0.3125 -1.015625 1.34375 0.171875 2.6875 0.171875 C 3.421875 0.171875 3.921875 -0.140625 4.53125 -0.875 L 4.53125 -0.484375 C 4.53125 1.046875 3.90625 1.625 2.84375 1.625 C 2.109375 1.625 1.546875 1.359375 1.4375 0.65625 L 0.5 0.65625 C 0.609375 1.75 1.453125 2.390625 2.8125 2.390625 C 4.609375 2.390625 5.375 1.59375 5.375 -0.953125 Z M 4.4375 -2.84375 C 4.4375 -1.46875 3.84375 -0.6875 2.875 -0.6875 C 1.875 -0.6875 1.28125 -1.484375 1.28125 -2.875 C 1.28125 -4.265625 1.890625 -5.078125 2.875 -5.078125 C 3.859375 -5.078125 4.4375 -4.25 4.4375 -2.84375 Z M 4.4375 -2.84375 "/>
</symbol>
<symbol overflow="visible" id="glyph1-3">
<path style="stroke:none;" d="M 5.640625 -2.625 C 5.640625 -3.453125 5.578125 -3.984375 5.40625 -4.40625 C 5.03125 -5.359375 4.15625 -5.921875 3.078125 -5.921875 C 1.46875 -5.921875 0.4375 -4.734375 0.4375 -2.84375 C 0.4375 -0.953125 1.4375 0.171875 3.0625 0.171875 C 4.375 0.171875 5.296875 -0.578125 5.515625 -1.75 L 4.59375 -1.75 C 4.34375 -0.984375 3.828125 -0.6875 3.09375 -0.6875 C 2.140625 -0.6875 1.421875 -1.296875 1.390625 -2.625 Z M 4.65625 -3.4375 C 4.65625 -3.4375 4.65625 -3.390625 4.65625 -3.359375 L 1.421875 -3.359375 C 1.5 -4.390625 2.140625 -5.078125 3.0625 -5.078125 C 3.96875 -5.078125 4.65625 -4.328125 4.65625 -3.4375 Z M 4.65625 -3.4375 "/>
</symbol>
<symbol overflow="visible" id="glyph2-0">
<path style="stroke:none;" d=""/>
</symbol>
<symbol overflow="visible" id="glyph2-1">
<path style="stroke:none;" d="M 0 -8.375 L -8.015625 -8.375 L -8.015625 -6.953125 L -1.03125 -4.625 L -8.015625 -2.25 L -8.015625 -0.828125 L 0 -0.828125 L 0 -1.796875 L -6.71875 -1.796875 L 0 -4.0625 L 0 -5.140625 L -6.71875 -7.40625 L 0 -7.40625 Z M 0 -8.375 "/>
</symbol>
<symbol overflow="visible" id="glyph2-2">
<path style="stroke:none;" d="M -0.015625 -5.890625 L -0.71875 -5.890625 C -0.6875 -5.78125 -0.6875 -5.734375 -0.6875 -5.6875 C -0.6875 -5.375 -0.859375 -5.1875 -1.140625 -5.1875 L -4.359375 -5.1875 C -5.375 -5.1875 -5.921875 -4.4375 -5.921875 -3.03125 C -5.921875 -1.625 -5.390625 -0.765625 -4.0625 -0.71875 L -4.0625 -1.640625 C -4.765625 -1.71875 -5.078125 -2.140625 -5.078125 -2.984375 C -5.078125 -3.8125 -4.78125 -4.28125 -4.21875 -4.28125 L -3.984375 -4.28125 C -3.59375 -4.28125 -3.4375 -4.046875 -3.34375 -3.328125 C -3.171875 -2.03125 -3.140625 -1.828125 -2.984375 -1.46875 C -2.71875 -0.796875 -2.203125 -0.46875 -1.5 -0.46875 C -0.453125 -0.46875 0.171875 -1.1875 0.171875 -2.359375 C 0.171875 -3.09375 -0.140625 -3.8125 -0.6875 -4.3125 C -0.234375 -4.40625 0.078125 -4.8125 0.078125 -5.265625 C 0.078125 -5.4375 0.0625 -5.59375 -0.015625 -5.890625 Z M -1.984375 -4.28125 C -1.171875 -4.28125 -0.640625 -3.4375 -0.640625 -2.546875 C -0.640625 -1.84375 -0.890625 -1.421875 -1.515625 -1.421875 C -2.125 -1.421875 -2.390625 -1.828125 -2.53125 -2.8125 C -2.65625 -3.765625 -2.703125 -3.96875 -2.84375 -4.28125 Z M -1.984375 -4.28125 "/>
</symbol>
<symbol overflow="visible" id="glyph2-3">
<path style="stroke:none;" d="M 0 -1.65625 L -8.015625 -1.65625 L -8.015625 -0.75 L 0 -0.75 Z M 0 -1.65625 "/>
</symbol>
<symbol overflow="visible" id="glyph2-4">
<path style="stroke:none;" d="M 0 -5.4375 L -8.015625 -5.4375 L -8.015625 -4.53125 L -5.03125 -4.53125 C -5.625 -4.140625 -5.921875 -3.53125 -5.921875 -2.765625 C -5.921875 -1.265625 -4.78125 -0.28125 -2.9375 -0.28125 C -0.984375 -0.28125 0.171875 -1.25 0.171875 -2.796875 C 0.171875 -3.59375 -0.125 -4.140625 -0.84375 -4.625 L 0 -4.625 Z M -2.859375 -4.53125 C -1.53125 -4.53125 -0.6875 -3.890625 -0.6875 -2.921875 C -0.6875 -1.90625 -1.546875 -1.25 -2.875 -1.25 C -4.21875 -1.25 -5.078125 -1.90625 -5.078125 -2.921875 C -5.078125 -3.90625 -4.1875 -4.53125 -2.859375 -4.53125 Z M -2.859375 -4.53125 "/>
</symbol>
<symbol overflow="visible" id="glyph2-5">
<path style="stroke:none;" d="M -2.625 -5.640625 C -3.453125 -5.640625 -3.984375 -5.578125 -4.40625 -5.40625 C -5.359375 -5.03125 -5.921875 -4.15625 -5.921875 -3.078125 C -5.921875 -1.46875 -4.734375 -0.4375 -2.84375 -0.4375 C -0.953125 -0.4375 0.171875 -1.4375 0.171875 -3.0625 C 0.171875 -4.375 -0.578125 -5.296875 -1.75 -5.515625 L -1.75 -4.59375 C -0.984375 -4.34375 -0.6875 -3.828125 -0.6875 -3.09375 C -0.6875 -2.140625 -1.296875 -1.421875 -2.625 -1.390625 Z M -3.4375 -4.65625 C -3.4375 -4.65625 -3.390625 -4.65625 -3.359375 -4.65625 L -3.359375 -1.421875 C -4.390625 -1.5 -5.078125 -2.140625 -5.078125 -3.0625 C -5.078125 -3.96875 -4.328125 -4.65625 -3.4375 -4.65625 Z M -3.4375 -4.65625 "/>
</symbol>
</g>
<clipPath id="clip1">
  <path d="M 43.890625 5.480469 L 283 5.480469 L 283 182 L 43.890625 182 Z M 43.890625 5.480469 "/>
</clipPath>
<clipPath id="clip2">
  <path d="M 43.890625 152 L 283 152 L 283 154 L 43.890625 154 Z M 43.890625 152 "/>
</clipPath>
<clipPath id="clip3">
  <path d="M 43.890625 112 L 283 112 L 283 114 L 43.890625 114 Z M 43.890625 112 "/>
</clipPath>
<clipPath id="clip4">
  <path d="M 43.890625 73 L 283 73 L 283 74 L 43.890625 74 Z M 43.890625 73 "/>
</clipPath>
<clipPath id="clip5">
  <path d="M 43.890625 33 L 283 33 L 283 34 L 43.890625 34 Z M 43.890625 33 "/>
</clipPath>
<clipPath id="clip6">
  <path d="M 90 5.480469 L 92 5.480469 L 92 182 L 90 182 Z M 90 5.480469 "/>
</clipPath>
<clipPath id="clip7">
  <path d="M 162 5.480469 L 164 5.480469 L 164 182 L 162 182 Z M 162 5.480469 "/>
</clipPath>
<clipPath id="clip8">
  <path d="M 235 5.480469 L 236 5.480469 L 236 182 L 235 182 Z M 235 5.480469 "/>
</clipPath>
<clipPath id="clip9">
  <path d="M 43.890625 172 L 283.519531 172 L 283.519531 174 L 43.890625 174 Z M 43.890625 172 "/>
</clipPath>
<clipPath id="clip10">
  <path d="M 43.890625 132 L 283.519531 132 L 283.519531 134 L 43.890625 134 Z M 43.890625 132 "/>
</clipPath>
<clipPath id="clip11">
  <path d="M 43.890625 92 L 283.519531 92 L 283.519531 94 L 43.890625 94 Z M 43.890625 92 "/>
</clipPath>
<clipPath id="clip12">
  <path d="M 43.890625 52 L 283.519531 52 L 283.519531 54 L 43.890625 54 Z M 43.890625 52 "/>
</clipPath>
<clipPath id="clip13">
  <path d="M 43.890625 12 L 283.519531 12 L 283.519531 14 L 43.890625 14 Z M 43.890625 12 "/>
</clipPath>
<clipPath id="clip14">
  <path d="M 54 5.480469 L 56 5.480469 L 56 182 L 54 182 Z M 54 5.480469 "/>
</clipPath>
<clipPath id="clip15">
  <path d="M 126 5.480469 L 128 5.480469 L 128 182 L 126 182 Z M 126 5.480469 "/>
</clipPath>
<clipPath id="clip16">
  <path d="M 198 5.480469 L 200 5.480469 L 200 182 L 198 182 Z M 198 5.480469 "/>
</clipPath>
<clipPath id="clip17">
  <path d="M 271 5.480469 L 273 5.480469 L 273 182 L 271 182 Z M 271 5.480469 "/>
</clipPath>
<clipPath id="clip18">
  <path d="M 43.890625 5.480469 L 283.519531 5.480469 L 283.519531 182 L 43.890625 182 Z M 43.890625 5.480469 "/>
</clipPath>
</defs>
<g id="surface388">
<rect x="0" y="0" width="288" height="216" style="fill:rgb(100%,100%,100%);fill-opacity:1;stroke:none;"/>
<rect x="0" y="0" width="288" height="216" style="fill:rgb(100%,100%,100%);fill-opacity:1;stroke:none;"/>
<path style="fill:none;stroke-width:1.066978;stroke-linecap:round;stroke-linejoin:round;stroke:rgb(100%,100%,100%);stroke-opacity:1;stroke-miterlimit:10;" d="M 0 216 L 288 216 L 288 0 L 0 0 Z M 0 216 "/>
<g clip-path="url(#clip1)" clip-rule="nonzero">
<path style=" stroke:none;fill-rule:nonzero;fill:rgb(100%,100%,100%);fill-opacity:1;" d="M 43.890625 181.109375 L 282.519531 181.109375 L 282.519531 5.480469 L 43.890625 5.480469 Z M 43.890625 181.109375 "/>
</g>
<g clip-path="url(#clip2)" clip-rule="nonzero">
<path style="fill:none;stroke-width:0.533489;stroke-linecap:butt;stroke-linejoin:round;stroke:rgb(92.156863%,92.156863%,92.156863%);stroke-opacity:1;stroke-miterlimit:10;" d="M 43.890625 153.167969 L 282.519531 153.167969 "/>
</g>
<g clip-path="url(#clip3)" clip-rule="nonzero">
<path style="fill:none;stroke-width:0.533489;stroke-linecap:butt;stroke-linejoin:round;stroke:rgb(92.156863%,92.156863%,92.156863%);stroke-opacity:1;stroke-miterlimit:10;" d="M 43.890625 113.253906 L 282.519531 113.253906 "/>
</g>
<g clip-path="url(#clip4)" clip-rule="nonzero">
<path style="fill:none;stroke-width:0.533489;stroke-linecap:butt;stroke-linejoin:round;stroke:rgb(92.156863%,92.156863%,92.156863%);stroke-opacity:1;stroke-miterlimit:10;" d="M 43.890625 73.335938 L 282.519531 73.335938 "/>
</g>
<g clip-path="url(#clip5)" clip-rule="nonzero">
<path style="fill:none;stroke-width:0.533489;stroke-linecap:butt;stroke-linejoin:round;stroke:rgb(92.156863%,92.156863%,92.156863%);stroke-opacity:1;stroke-miterlimit:10;" d="M 43.890625 33.421875 L 282.519531 33.421875 "/>
</g>
<g clip-path="url(#clip6)" clip-rule="nonzero">
<path style="fill:none;stroke-width:0.533489;stroke-linecap:butt;stroke-linejoin:round;stroke:rgb(92.156863%,92.156863%,92.156863%);stroke-opacity:1;stroke-miterlimit:10;" d="M 90.894531 181.109375 L 90.894531 5.480469 "/>
</g>
<g clip-path="url(#clip7)" clip-rule="nonzero">
<path style="fill:none;stroke-width:0.533489;stroke-linecap:butt;stroke-linejoin:round;stroke:rgb(92.156863%,92.156863%,92.156863%);stroke-opacity:1;stroke-miterlimit:10;" d="M 163.207031 181.109375 L 163.207031 5.480469 "/>
</g>
<g clip-path="url(#clip8)" clip-rule="nonzero">
<path style="fill:none;stroke-width:0.533489;stroke-linecap:butt;stroke-linejoin:round;stroke:rgb(92.156863%,92.156863%,92.156863%);stroke-opacity:1;stroke-miterlimit:10;" d="M 235.519531 181.109375 L 235.519531 5.480469 "/>
</g>
<g clip-path="url(#clip9)" clip-rule="nonzero">
<path style="fill:none;stroke-width:1.066978;stroke-linecap:butt;stroke-linejoin:round;stroke:rgb(92.156863%,92.156863%,92.156863%);stroke-opacity:1;stroke-miterlimit:10;" d="M 43.890625 173.125 L 282.519531 173.125 "/>
</g>
<g clip-path="url(#clip10)" clip-rule="nonzero">
<path style="fill:none;stroke-width:1.066978;stroke-linecap:butt;stroke-linejoin:round;stroke:rgb(92.156863%,92.156863%,92.156863%);stroke-opacity:1;stroke-miterlimit:10;" d="M 43.890625 133.210938 L 282.519531 133.210938 "/>
</g>
<g clip-path="url(#clip11)" clip-rule="nonzero">
<path style="fill:none;stroke-width:1.066978;stroke-linecap:butt;stroke-linejoin:round;stroke:rgb(92.156863%,92.156863%,92.156863%);stroke-opacity:1;stroke-miterlimit:10;" d="M 43.890625 93.292969 L 282.519531 93.292969 "/>
</g>
<g clip-path="url(#clip12)" clip-rule="nonzero">
<path style="fill:none;stroke-width:1.066978;stroke-linecap:butt;stroke-linejoin:round;stroke:rgb(92.156863%,92.156863%,92.156863%);stroke-opacity:1;stroke-miterlimit:10;" d="M 43.890625 53.378906 L 282.519531 53.378906 "/>
</g>
<g clip-path="url(#clip13)" clip-rule="nonzero">
<path style="fill:none;stroke-width:1.066978;stroke-linecap:butt;stroke-linejoin:round;stroke:rgb(92.156863%,92.156863%,92.156863%);stroke-opacity:1;stroke-miterlimit:10;" d="M 43.890625 13.460938 L 282.519531 13.460938 "/>
</g>
<g clip-path="url(#clip14)" clip-rule="nonzero">
<path style="fill:none;stroke-width:1.066978;stroke-linecap:butt;stroke-linejoin:round;stroke:rgb(92.156863%,92.156863%,92.156863%);stroke-opacity:1;stroke-miterlimit:10;" d="M 54.738281 181.109375 L 54.738281 5.480469 "/>
</g>
<g clip-path="url(#clip15)" clip-rule="nonzero">
<path style="fill:none;stroke-width:1.066978;stroke-linecap:butt;stroke-linejoin:round;stroke:rgb(92.156863%,92.156863%,92.156863%);stroke-opacity:1;stroke-miterlimit:10;" d="M 127.050781 181.109375 L 127.050781 5.480469 "/>
</g>
<g clip-path="url(#clip16)" clip-rule="nonzero">
<path style="fill:none;stroke-width:1.066978;stroke-linecap:butt;stroke-linejoin:round;stroke:rgb(92.156863%,92.156863%,92.156863%);stroke-opacity:1;stroke-miterlimit:10;" d="M 199.363281 181.109375 L 199.363281 5.480469 "/>
</g>
<g clip-path="url(#clip17)" clip-rule="nonzero">
<path style="fill:none;stroke-width:1.066978;stroke-linecap:butt;stroke-linejoin:round;stroke:rgb(92.156863%,92.156863%,92.156863%);stroke-opacity:1;stroke-miterlimit:10;" d="M 271.671875 181.109375 L 271.671875 5.480469 "/>
</g>
<path style="fill-rule:nonzero;fill:rgb(0%,0%,0%);fill-opacity:0.301961;stroke-width:0.708661;stroke-linecap:round;stroke-linejoin:round;stroke:rgb(0%,0%,0%);stroke-opacity:0.301961;stroke-miterlimit:10;" d="M 125.527344 173.125 C 125.527344 177.867188 118.417969 177.867188 118.417969 173.125 C 118.417969 168.386719 125.527344 168.386719 125.527344 173.125 "/>
<path style="fill-rule:nonzero;fill:rgb(0%,0%,0%);fill-opacity:0.301961;stroke-width:0.708661;stroke-linecap:round;stroke-linejoin:round;stroke:rgb(0%,0%,0%);stroke-opacity:0.301961;stroke-miterlimit:10;" d="M 93.765625 173.125 C 93.765625 177.867188 86.652344 177.867188 86.652344 173.125 C 86.652344 168.386719 93.765625 168.386719 93.765625 173.125 "/>
<path style="fill-rule:nonzero;fill:rgb(0%,0%,0%);fill-opacity:0.301961;stroke-width:0.708661;stroke-linecap:round;stroke-linejoin:round;stroke:rgb(0%,0%,0%);stroke-opacity:0.301961;stroke-miterlimit:10;" d="M 161.515625 173.125 C 161.515625 177.867188 154.402344 177.867188 154.402344 173.125 C 154.402344 168.386719 161.515625 168.386719 161.515625 173.125 "/>
<path style="fill-rule:nonzero;fill:rgb(0%,0%,0%);fill-opacity:0.301961;stroke-width:0.708661;stroke-linecap:round;stroke-linejoin:round;stroke:rgb(0%,0%,0%);stroke-opacity:0.301961;stroke-miterlimit:10;" d="M 119.089844 173.125 C 119.089844 177.867188 111.976562 177.867188 111.976562 173.125 C 111.976562 168.386719 119.089844 168.386719 119.089844 173.125 "/>
<path style="fill-rule:nonzero;fill:rgb(0%,0%,0%);fill-opacity:0.301961;stroke-width:0.708661;stroke-linecap:round;stroke-linejoin:round;stroke:rgb(0%,0%,0%);stroke-opacity:0.301961;stroke-miterlimit:10;" d="M 162.46875 173.125 C 162.46875 177.867188 155.359375 177.867188 155.359375 173.125 C 155.359375 168.386719 162.46875 168.386719 162.46875 173.125 "/>
<path style="fill-rule:nonzero;fill:rgb(0%,0%,0%);fill-opacity:0.301961;stroke-width:0.708661;stroke-linecap:round;stroke-linejoin:round;stroke:rgb(0%,0%,0%);stroke-opacity:0.301961;stroke-miterlimit:10;" d="M 90.160156 173.125 C 90.160156 177.867188 83.050781 177.867188 83.050781 173.125 C 83.050781 168.386719 90.160156 168.386719 90.160156 173.125 "/>
<path style="fill-rule:nonzero;fill:rgb(0%,0%,0%);fill-opacity:0.301961;stroke-width:0.708661;stroke-linecap:round;stroke-linejoin:round;stroke:rgb(0%,0%,0%);stroke-opacity:0.301961;stroke-miterlimit:10;" d="M 165.132812 173.125 C 165.132812 177.867188 158.023438 177.867188 158.023438 173.125 C 158.023438 168.386719 165.132812 168.386719 165.132812 173.125 "/>
<path style="fill-rule:nonzero;fill:rgb(0%,0%,0%);fill-opacity:0.301961;stroke-width:0.708661;stroke-linecap:round;stroke-linejoin:round;stroke:rgb(0%,0%,0%);stroke-opacity:0.301961;stroke-miterlimit:10;" d="M 94.613281 173.125 C 94.613281 177.867188 87.5 177.867188 87.5 173.125 C 87.5 168.386719 94.613281 168.386719 94.613281 173.125 "/>
<path style="fill-rule:nonzero;fill:rgb(0%,0%,0%);fill-opacity:0.301961;stroke-width:0.708661;stroke-linecap:round;stroke-linejoin:round;stroke:rgb(0%,0%,0%);stroke-opacity:0.301961;stroke-miterlimit:10;" d="M 82.8125 173.125 C 82.8125 177.867188 75.699219 177.867188 75.699219 173.125 C 75.699219 168.386719 82.8125 168.386719 82.8125 173.125 "/>
<path style="fill-rule:nonzero;fill:rgb(0%,0%,0%);fill-opacity:0.301961;stroke-width:0.708661;stroke-linecap:round;stroke-linejoin:round;stroke:rgb(0%,0%,0%);stroke-opacity:0.301961;stroke-miterlimit:10;" d="M 147.351562 173.125 C 147.351562 177.867188 140.242188 177.867188 140.242188 173.125 C 140.242188 168.386719 147.351562 168.386719 147.351562 173.125 "/>
<path style="fill-rule:nonzero;fill:rgb(0%,0%,0%);fill-opacity:0.301961;stroke-width:0.708661;stroke-linecap:round;stroke-linejoin:round;stroke:rgb(0%,0%,0%);stroke-opacity:0.301961;stroke-miterlimit:10;" d="M 159.253906 13.460938 C 159.253906 18.203125 152.144531 18.203125 152.144531 13.460938 C 152.144531 8.722656 159.253906 8.722656 159.253906 13.460938 "/>
<path style="fill-rule:nonzero;fill:rgb(0%,0%,0%);fill-opacity:0.301961;stroke-width:0.708661;stroke-linecap:round;stroke-linejoin:round;stroke:rgb(0%,0%,0%);stroke-opacity:0.301961;stroke-miterlimit:10;" d="M 146.910156 173.125 C 146.910156 177.867188 139.800781 177.867188 139.800781 173.125 C 139.800781 168.386719 146.910156 168.386719 146.910156 173.125 "/>
<path style="fill-rule:nonzero;fill:rgb(0%,0%,0%);fill-opacity:0.301961;stroke-width:0.708661;stroke-linecap:round;stroke-linejoin:round;stroke:rgb(0%,0%,0%);stroke-opacity:0.301961;stroke-miterlimit:10;" d="M 66.351562 173.125 C 66.351562 177.867188 59.242188 177.867188 59.242188 173.125 C 59.242188 168.386719 66.351562 168.386719 66.351562 173.125 "/>
<path style="fill-rule:nonzero;fill:rgb(0%,0%,0%);fill-opacity:0.301961;stroke-width:0.708661;stroke-linecap:round;stroke-linejoin:round;stroke:rgb(0%,0%,0%);stroke-opacity:0.301961;stroke-miterlimit:10;" d="M 67.0625 173.125 C 67.0625 177.867188 59.953125 177.867188 59.953125 173.125 C 59.953125 168.386719 67.0625 168.386719 67.0625 173.125 "/>
<path style="fill-rule:nonzero;fill:rgb(0%,0%,0%);fill-opacity:0.301961;stroke-width:0.708661;stroke-linecap:round;stroke-linejoin:round;stroke:rgb(0%,0%,0%);stroke-opacity:0.301961;stroke-miterlimit:10;" d="M 109.070312 173.125 C 109.070312 177.867188 101.960938 177.867188 101.960938 173.125 C 101.960938 168.386719 109.070312 168.386719 109.070312 173.125 "/>
<path style="fill-rule:nonzero;fill:rgb(0%,0%,0%);fill-opacity:0.301961;stroke-width:0.708661;stroke-linecap:round;stroke-linejoin:round;stroke:rgb(0%,0%,0%);stroke-opacity:0.301961;stroke-miterlimit:10;" d="M 145.121094 173.125 C 145.121094 177.867188 138.007812 177.867188 138.007812 173.125 C 138.007812 168.386719 145.121094 168.386719 145.121094 173.125 "/>
<path style="fill-rule:nonzero;fill:rgb(0%,0%,0%);fill-opacity:0.301961;stroke-width:0.708661;stroke-linecap:round;stroke-linejoin:round;stroke:rgb(0%,0%,0%);stroke-opacity:0.301961;stroke-miterlimit:10;" d="M 156.90625 13.460938 C 156.90625 18.203125 149.796875 18.203125 149.796875 13.460938 C 149.796875 8.722656 156.90625 8.722656 156.90625 13.460938 "/>
<path style="fill-rule:nonzero;fill:rgb(0%,0%,0%);fill-opacity:0.301961;stroke-width:0.708661;stroke-linecap:round;stroke-linejoin:round;stroke:rgb(0%,0%,0%);stroke-opacity:0.301961;stroke-miterlimit:10;" d="M 73.375 173.125 C 73.375 177.867188 66.261719 177.867188 66.261719 173.125 C 66.261719 168.386719 73.375 168.386719 73.375 173.125 "/>
<path style="fill-rule:nonzero;fill:rgb(0%,0%,0%);fill-opacity:0.301961;stroke-width:0.708661;stroke-linecap:round;stroke-linejoin:round;stroke:rgb(0%,0%,0%);stroke-opacity:0.301961;stroke-miterlimit:10;" d="M 156.0625 173.125 C 156.0625 177.867188 148.953125 177.867188 148.953125 173.125 C 148.953125 168.386719 156.0625 168.386719 156.0625 173.125 "/>
<path style="fill-rule:nonzero;fill:rgb(0%,0%,0%);fill-opacity:0.301961;stroke-width:0.708661;stroke-linecap:round;stroke-linejoin:round;stroke:rgb(0%,0%,0%);stroke-opacity:0.301961;stroke-miterlimit:10;" d="M 135.445312 173.125 C 135.445312 177.867188 128.335938 177.867188 128.335938 173.125 C 128.335938 168.386719 135.445312 168.386719 135.445312 173.125 "/>
<path style="fill-rule:nonzero;fill:rgb(0%,0%,0%);fill-opacity:0.301961;stroke-width:0.708661;stroke-linecap:round;stroke-linejoin:round;stroke:rgb(0%,0%,0%);stroke-opacity:0.301961;stroke-miterlimit:10;" d="M 138.238281 173.125 C 138.238281 177.867188 131.128906 177.867188 131.128906 173.125 C 131.128906 168.386719 138.238281 168.386719 138.238281 173.125 "/>
<path style="fill-rule:nonzero;fill:rgb(0%,0%,0%);fill-opacity:0.301961;stroke-width:0.708661;stroke-linecap:round;stroke-linejoin:round;stroke:rgb(0%,0%,0%);stroke-opacity:0.301961;stroke-miterlimit:10;" d="M 149.089844 173.125 C 149.089844 177.867188 141.976562 177.867188 141.976562 173.125 C 141.976562 168.386719 149.089844 168.386719 149.089844 173.125 "/>
<path style="fill-rule:nonzero;fill:rgb(0%,0%,0%);fill-opacity:0.301961;stroke-width:0.708661;stroke-linecap:round;stroke-linejoin:round;stroke:rgb(0%,0%,0%);stroke-opacity:0.301961;stroke-miterlimit:10;" d="M 73.6875 173.125 C 73.6875 177.867188 66.578125 177.867188 66.578125 173.125 C 66.578125 168.386719 73.6875 168.386719 73.6875 173.125 "/>
<path style="fill-rule:nonzero;fill:rgb(0%,0%,0%);fill-opacity:0.301961;stroke-width:0.708661;stroke-linecap:round;stroke-linejoin:round;stroke:rgb(0%,0%,0%);stroke-opacity:0.301961;stroke-miterlimit:10;" d="M 101.4375 173.125 C 101.4375 177.867188 94.328125 177.867188 94.328125 173.125 C 94.328125 168.386719 101.4375 168.386719 101.4375 173.125 "/>
<path style="fill-rule:nonzero;fill:rgb(0%,0%,0%);fill-opacity:0.301961;stroke-width:0.708661;stroke-linecap:round;stroke-linejoin:round;stroke:rgb(0%,0%,0%);stroke-opacity:0.301961;stroke-miterlimit:10;" d="M 120.273438 173.125 C 120.273438 177.867188 113.164062 177.867188 113.164062 173.125 C 113.164062 168.386719 120.273438 168.386719 120.273438 173.125 "/>
<path style="fill-rule:nonzero;fill:rgb(0%,0%,0%);fill-opacity:0.301961;stroke-width:0.708661;stroke-linecap:round;stroke-linejoin:round;stroke:rgb(0%,0%,0%);stroke-opacity:0.301961;stroke-miterlimit:10;" d="M 105.257812 173.125 C 105.257812 177.867188 98.148438 177.867188 98.148438 173.125 C 98.148438 168.386719 105.257812 168.386719 105.257812 173.125 "/>
<path style="fill-rule:nonzero;fill:rgb(0%,0%,0%);fill-opacity:0.301961;stroke-width:0.708661;stroke-linecap:round;stroke-linejoin:round;stroke:rgb(0%,0%,0%);stroke-opacity:0.301961;stroke-miterlimit:10;" d="M 122.414062 173.125 C 122.414062 177.867188 115.304688 177.867188 115.304688 173.125 C 115.304688 168.386719 122.414062 168.386719 122.414062 173.125 "/>
<path style="fill-rule:nonzero;fill:rgb(0%,0%,0%);fill-opacity:0.301961;stroke-width:0.708661;stroke-linecap:round;stroke-linejoin:round;stroke:rgb(0%,0%,0%);stroke-opacity:0.301961;stroke-miterlimit:10;" d="M 115.96875 173.125 C 115.96875 177.867188 108.855469 177.867188 108.855469 173.125 C 108.855469 168.386719 115.96875 168.386719 115.96875 173.125 "/>
<path style="fill-rule:nonzero;fill:rgb(0%,0%,0%);fill-opacity:0.301961;stroke-width:0.708661;stroke-linecap:round;stroke-linejoin:round;stroke:rgb(0%,0%,0%);stroke-opacity:0.301961;stroke-miterlimit:10;" d="M 74.539062 173.125 C 74.539062 177.867188 67.429688 177.867188 67.429688 173.125 C 67.429688 168.386719 74.539062 168.386719 74.539062 173.125 "/>
<path style="fill-rule:nonzero;fill:rgb(0%,0%,0%);fill-opacity:0.301961;stroke-width:0.708661;stroke-linecap:round;stroke-linejoin:round;stroke:rgb(0%,0%,0%);stroke-opacity:0.301961;stroke-miterlimit:10;" d="M 94.984375 173.125 C 94.984375 177.867188 87.871094 177.867188 87.871094 173.125 C 87.871094 168.386719 94.984375 168.386719 94.984375 173.125 "/>
<path style="fill-rule:nonzero;fill:rgb(0%,0%,0%);fill-opacity:0.301961;stroke-width:0.708661;stroke-linecap:round;stroke-linejoin:round;stroke:rgb(0%,0%,0%);stroke-opacity:0.301961;stroke-miterlimit:10;" d="M 110.902344 173.125 C 110.902344 177.867188 103.789062 177.867188 103.789062 173.125 C 103.789062 168.386719 110.902344 168.386719 110.902344 173.125 "/>
<path style="fill-rule:nonzero;fill:rgb(0%,0%,0%);fill-opacity:0.301961;stroke-width:0.708661;stroke-linecap:round;stroke-linejoin:round;stroke:rgb(0%,0%,0%);stroke-opacity:0.301961;stroke-miterlimit:10;" d="M 166.054688 13.460938 C 166.054688 18.203125 158.945312 18.203125 158.945312 13.460938 C 158.945312 8.722656 166.054688 8.722656 166.054688 13.460938 "/>
<path style="fill-rule:nonzero;fill:rgb(0%,0%,0%);fill-opacity:0.301961;stroke-width:0.708661;stroke-linecap:round;stroke-linejoin:round;stroke:rgb(0%,0%,0%);stroke-opacity:0.301961;stroke-miterlimit:10;" d="M 106.921875 173.125 C 106.921875 177.867188 99.8125 177.867188 99.8125 173.125 C 99.8125 168.386719 106.921875 168.386719 106.921875 173.125 "/>
<path style="fill-rule:nonzero;fill:rgb(0%,0%,0%);fill-opacity:0.301961;stroke-width:0.708661;stroke-linecap:round;stroke-linejoin:round;stroke:rgb(0%,0%,0%);stroke-opacity:0.301961;stroke-miterlimit:10;" d="M 67.175781 173.125 C 67.175781 177.867188 60.066406 177.867188 60.066406 173.125 C 60.066406 168.386719 67.175781 168.386719 67.175781 173.125 "/>
<path style="fill-rule:nonzero;fill:rgb(0%,0%,0%);fill-opacity:0.301961;stroke-width:0.708661;stroke-linecap:round;stroke-linejoin:round;stroke:rgb(0%,0%,0%);stroke-opacity:0.301961;stroke-miterlimit:10;" d="M 144.265625 13.460938 C 144.265625 18.203125 137.15625 18.203125 137.15625 13.460938 C 137.15625 8.722656 144.265625 8.722656 144.265625 13.460938 "/>
<path style="fill-rule:nonzero;fill:rgb(0%,0%,0%);fill-opacity:0.301961;stroke-width:0.708661;stroke-linecap:round;stroke-linejoin:round;stroke:rgb(0%,0%,0%);stroke-opacity:0.301961;stroke-miterlimit:10;" d="M 65.851562 173.125 C 65.851562 177.867188 58.742188 177.867188 58.742188 173.125 C 58.742188 168.386719 65.851562 168.386719 65.851562 173.125 "/>
<path style="fill-rule:nonzero;fill:rgb(0%,0%,0%);fill-opacity:0.301961;stroke-width:0.708661;stroke-linecap:round;stroke-linejoin:round;stroke:rgb(0%,0%,0%);stroke-opacity:0.301961;stroke-miterlimit:10;" d="M 98.636719 173.125 C 98.636719 177.867188 91.527344 177.867188 91.527344 173.125 C 91.527344 168.386719 98.636719 168.386719 98.636719 173.125 "/>
<path style="fill-rule:nonzero;fill:rgb(0%,0%,0%);fill-opacity:0.301961;stroke-width:0.708661;stroke-linecap:round;stroke-linejoin:round;stroke:rgb(0%,0%,0%);stroke-opacity:0.301961;stroke-miterlimit:10;" d="M 140.8125 173.125 C 140.8125 177.867188 133.703125 177.867188 133.703125 173.125 C 133.703125 168.386719 140.8125 168.386719 140.8125 173.125 "/>
<path style="fill-rule:nonzero;fill:rgb(0%,0%,0%);fill-opacity:0.301961;stroke-width:0.708661;stroke-linecap:round;stroke-linejoin:round;stroke:rgb(0%,0%,0%);stroke-opacity:0.301961;stroke-miterlimit:10;" d="M 114.53125 173.125 C 114.53125 177.867188 107.421875 177.867188 107.421875 173.125 C 107.421875 168.386719 114.53125 168.386719 114.53125 173.125 "/>
<path style="fill-rule:nonzero;fill:rgb(0%,0%,0%);fill-opacity:0.301961;stroke-width:0.708661;stroke-linecap:round;stroke-linejoin:round;stroke:rgb(0%,0%,0%);stroke-opacity:0.301961;stroke-miterlimit:10;" d="M 84.394531 173.125 C 84.394531 177.867188 77.28125 177.867188 77.28125 173.125 C 77.28125 168.386719 84.394531 168.386719 84.394531 173.125 "/>
<path style="fill-rule:nonzero;fill:rgb(0%,0%,0%);fill-opacity:0.301961;stroke-width:0.708661;stroke-linecap:round;stroke-linejoin:round;stroke:rgb(0%,0%,0%);stroke-opacity:0.301961;stroke-miterlimit:10;" d="M 83.476562 173.125 C 83.476562 177.867188 76.367188 177.867188 76.367188 173.125 C 76.367188 168.386719 83.476562 168.386719 83.476562 173.125 "/>
<path style="fill-rule:nonzero;fill:rgb(0%,0%,0%);fill-opacity:0.301961;stroke-width:0.708661;stroke-linecap:round;stroke-linejoin:round;stroke:rgb(0%,0%,0%);stroke-opacity:0.301961;stroke-miterlimit:10;" d="M 129.53125 173.125 C 129.53125 177.867188 122.417969 177.867188 122.417969 173.125 C 122.417969 168.386719 129.53125 168.386719 129.53125 173.125 "/>
<path style="fill-rule:nonzero;fill:rgb(0%,0%,0%);fill-opacity:0.301961;stroke-width:0.708661;stroke-linecap:round;stroke-linejoin:round;stroke:rgb(0%,0%,0%);stroke-opacity:0.301961;stroke-miterlimit:10;" d="M 65.574219 173.125 C 65.574219 177.867188 58.464844 177.867188 58.464844 173.125 C 58.464844 168.386719 65.574219 168.386719 65.574219 173.125 "/>
<path style="fill-rule:nonzero;fill:rgb(0%,0%,0%);fill-opacity:0.301961;stroke-width:0.708661;stroke-linecap:round;stroke-linejoin:round;stroke:rgb(0%,0%,0%);stroke-opacity:0.301961;stroke-miterlimit:10;" d="M 109.261719 173.125 C 109.261719 177.867188 102.152344 177.867188 102.152344 173.125 C 102.152344 168.386719 109.261719 168.386719 109.261719 173.125 "/>
<path style="fill-rule:nonzero;fill:rgb(0%,0%,0%);fill-opacity:0.301961;stroke-width:0.708661;stroke-linecap:round;stroke-linejoin:round;stroke:rgb(0%,0%,0%);stroke-opacity:0.301961;stroke-miterlimit:10;" d="M 135.371094 173.125 C 135.371094 177.867188 128.261719 177.867188 128.261719 173.125 C 128.261719 168.386719 135.371094 168.386719 135.371094 173.125 "/>
<path style="fill-rule:nonzero;fill:rgb(0%,0%,0%);fill-opacity:0.301961;stroke-width:0.708661;stroke-linecap:round;stroke-linejoin:round;stroke:rgb(0%,0%,0%);stroke-opacity:0.301961;stroke-miterlimit:10;" d="M 111.0625 173.125 C 111.0625 177.867188 103.953125 177.867188 103.953125 173.125 C 103.953125 168.386719 111.0625 168.386719 111.0625 173.125 "/>
<path style="fill-rule:nonzero;fill:rgb(0%,0%,0%);fill-opacity:0.301961;stroke-width:0.708661;stroke-linecap:round;stroke-linejoin:round;stroke:rgb(0%,0%,0%);stroke-opacity:0.301961;stroke-miterlimit:10;" d="M 110.9375 173.125 C 110.9375 177.867188 103.828125 177.867188 103.828125 173.125 C 103.828125 168.386719 110.9375 168.386719 110.9375 173.125 "/>
<path style="fill-rule:nonzero;fill:rgb(0%,0%,0%);fill-opacity:0.301961;stroke-width:0.708661;stroke-linecap:round;stroke-linejoin:round;stroke:rgb(0%,0%,0%);stroke-opacity:0.301961;stroke-miterlimit:10;" d="M 147.085938 13.460938 C 147.085938 18.203125 139.976562 18.203125 139.976562 13.460938 C 139.976562 8.722656 147.085938 8.722656 147.085938 13.460938 "/>
<path style="fill-rule:nonzero;fill:rgb(0%,0%,0%);fill-opacity:0.301961;stroke-width:0.708661;stroke-linecap:round;stroke-linejoin:round;stroke:rgb(0%,0%,0%);stroke-opacity:0.301961;stroke-miterlimit:10;" d="M 66 173.125 C 66 177.867188 58.890625 177.867188 58.890625 173.125 C 58.890625 168.386719 66 168.386719 66 173.125 "/>
<path style="fill-rule:nonzero;fill:rgb(0%,0%,0%);fill-opacity:0.301961;stroke-width:0.708661;stroke-linecap:round;stroke-linejoin:round;stroke:rgb(0%,0%,0%);stroke-opacity:0.301961;stroke-miterlimit:10;" d="M 160.464844 173.125 C 160.464844 177.867188 153.351562 177.867188 153.351562 173.125 C 153.351562 168.386719 160.464844 168.386719 160.464844 173.125 "/>
<path style="fill-rule:nonzero;fill:rgb(0%,0%,0%);fill-opacity:0.301961;stroke-width:0.708661;stroke-linecap:round;stroke-linejoin:round;stroke:rgb(0%,0%,0%);stroke-opacity:0.301961;stroke-miterlimit:10;" d="M 65.8125 173.125 C 65.8125 177.867188 58.703125 177.867188 58.703125 173.125 C 58.703125 168.386719 65.8125 168.386719 65.8125 173.125 "/>
<path style="fill-rule:nonzero;fill:rgb(0%,0%,0%);fill-opacity:0.301961;stroke-width:0.708661;stroke-linecap:round;stroke-linejoin:round;stroke:rgb(0%,0%,0%);stroke-opacity:0.301961;stroke-miterlimit:10;" d="M 140.109375 173.125 C 140.109375 177.867188 133 177.867188 133 173.125 C 133 168.386719 140.109375 168.386719 140.109375 173.125 "/>
<path style="fill-rule:nonzero;fill:rgb(0%,0%,0%);fill-opacity:0.301961;stroke-width:0.708661;stroke-linecap:round;stroke-linejoin:round;stroke:rgb(0%,0%,0%);stroke-opacity:0.301961;stroke-miterlimit:10;" d="M 140.332031 173.125 C 140.332031 177.867188 133.21875 177.867188 133.21875 173.125 C 133.21875 168.386719 140.332031 168.386719 140.332031 173.125 "/>
<path style="fill-rule:nonzero;fill:rgb(0%,0%,0%);fill-opacity:0.301961;stroke-width:0.708661;stroke-linecap:round;stroke-linejoin:round;stroke:rgb(0%,0%,0%);stroke-opacity:0.301961;stroke-miterlimit:10;" d="M 151.636719 13.460938 C 151.636719 18.203125 144.527344 18.203125 144.527344 13.460938 C 144.527344 8.722656 151.636719 8.722656 151.636719 13.460938 "/>
<path style="fill-rule:nonzero;fill:rgb(0%,0%,0%);fill-opacity:0.301961;stroke-width:0.708661;stroke-linecap:round;stroke-linejoin:round;stroke:rgb(0%,0%,0%);stroke-opacity:0.301961;stroke-miterlimit:10;" d="M 148.351562 173.125 C 148.351562 177.867188 141.242188 177.867188 141.242188 173.125 C 141.242188 168.386719 148.351562 168.386719 148.351562 173.125 "/>
<path style="fill-rule:nonzero;fill:rgb(0%,0%,0%);fill-opacity:0.301961;stroke-width:0.708661;stroke-linecap:round;stroke-linejoin:round;stroke:rgb(0%,0%,0%);stroke-opacity:0.301961;stroke-miterlimit:10;" d="M 114.496094 173.125 C 114.496094 177.867188 107.382812 177.867188 107.382812 173.125 C 107.382812 168.386719 114.496094 168.386719 114.496094 173.125 "/>
<path style="fill-rule:nonzero;fill:rgb(0%,0%,0%);fill-opacity:0.301961;stroke-width:0.708661;stroke-linecap:round;stroke-linejoin:round;stroke:rgb(0%,0%,0%);stroke-opacity:0.301961;stroke-miterlimit:10;" d="M 89.371094 173.125 C 89.371094 177.867188 82.261719 177.867188 82.261719 173.125 C 82.261719 168.386719 89.371094 168.386719 89.371094 173.125 "/>
<path style="fill-rule:nonzero;fill:rgb(0%,0%,0%);fill-opacity:0.301961;stroke-width:0.708661;stroke-linecap:round;stroke-linejoin:round;stroke:rgb(0%,0%,0%);stroke-opacity:0.301961;stroke-miterlimit:10;" d="M 96.652344 173.125 C 96.652344 177.867188 89.542969 177.867188 89.542969 173.125 C 89.542969 168.386719 96.652344 168.386719 96.652344 173.125 "/>
<path style="fill-rule:nonzero;fill:rgb(0%,0%,0%);fill-opacity:0.301961;stroke-width:0.708661;stroke-linecap:round;stroke-linejoin:round;stroke:rgb(0%,0%,0%);stroke-opacity:0.301961;stroke-miterlimit:10;" d="M 82.355469 173.125 C 82.355469 177.867188 75.246094 177.867188 75.246094 173.125 C 75.246094 168.386719 82.355469 168.386719 82.355469 173.125 "/>
<path style="fill-rule:nonzero;fill:rgb(0%,0%,0%);fill-opacity:0.301961;stroke-width:0.708661;stroke-linecap:round;stroke-linejoin:round;stroke:rgb(0%,0%,0%);stroke-opacity:0.301961;stroke-miterlimit:10;" d="M 162.839844 173.125 C 162.839844 177.867188 155.730469 177.867188 155.730469 173.125 C 155.730469 168.386719 162.839844 168.386719 162.839844 173.125 "/>
<path style="fill-rule:nonzero;fill:rgb(0%,0%,0%);fill-opacity:0.301961;stroke-width:0.708661;stroke-linecap:round;stroke-linejoin:round;stroke:rgb(0%,0%,0%);stroke-opacity:0.301961;stroke-miterlimit:10;" d="M 101.207031 173.125 C 101.207031 177.867188 94.097656 177.867188 94.097656 173.125 C 94.097656 168.386719 101.207031 168.386719 101.207031 173.125 "/>
<path style="fill-rule:nonzero;fill:rgb(0%,0%,0%);fill-opacity:0.301961;stroke-width:0.708661;stroke-linecap:round;stroke-linejoin:round;stroke:rgb(0%,0%,0%);stroke-opacity:0.301961;stroke-miterlimit:10;" d="M 127.097656 173.125 C 127.097656 177.867188 119.988281 177.867188 119.988281 173.125 C 119.988281 168.386719 127.097656 168.386719 127.097656 173.125 "/>
<path style="fill-rule:nonzero;fill:rgb(0%,0%,0%);fill-opacity:0.301961;stroke-width:0.708661;stroke-linecap:round;stroke-linejoin:round;stroke:rgb(0%,0%,0%);stroke-opacity:0.301961;stroke-miterlimit:10;" d="M 96.785156 173.125 C 96.785156 177.867188 89.675781 177.867188 89.675781 173.125 C 89.675781 168.386719 96.785156 168.386719 96.785156 173.125 "/>
<path style="fill-rule:nonzero;fill:rgb(0%,0%,0%);fill-opacity:0.301961;stroke-width:0.708661;stroke-linecap:round;stroke-linejoin:round;stroke:rgb(0%,0%,0%);stroke-opacity:0.301961;stroke-miterlimit:10;" d="M 133.484375 173.125 C 133.484375 177.867188 126.375 177.867188 126.375 173.125 C 126.375 168.386719 133.484375 168.386719 133.484375 173.125 "/>
<path style="fill-rule:nonzero;fill:rgb(0%,0%,0%);fill-opacity:0.301961;stroke-width:0.708661;stroke-linecap:round;stroke-linejoin:round;stroke:rgb(0%,0%,0%);stroke-opacity:0.301961;stroke-miterlimit:10;" d="M 148.238281 173.125 C 148.238281 177.867188 141.128906 177.867188 141.128906 173.125 C 141.128906 168.386719 148.238281 168.386719 148.238281 173.125 "/>
<path style="fill-rule:nonzero;fill:rgb(0%,0%,0%);fill-opacity:0.301961;stroke-width:0.708661;stroke-linecap:round;stroke-linejoin:round;stroke:rgb(0%,0%,0%);stroke-opacity:0.301961;stroke-miterlimit:10;" d="M 104.921875 173.125 C 104.921875 177.867188 97.808594 177.867188 97.808594 173.125 C 97.808594 168.386719 104.921875 168.386719 104.921875 173.125 "/>
<path style="fill-rule:nonzero;fill:rgb(0%,0%,0%);fill-opacity:0.301961;stroke-width:0.708661;stroke-linecap:round;stroke-linejoin:round;stroke:rgb(0%,0%,0%);stroke-opacity:0.301961;stroke-miterlimit:10;" d="M 71.625 173.125 C 71.625 177.867188 64.511719 177.867188 64.511719 173.125 C 64.511719 168.386719 71.625 168.386719 71.625 173.125 "/>
<path style="fill-rule:nonzero;fill:rgb(0%,0%,0%);fill-opacity:0.301961;stroke-width:0.708661;stroke-linecap:round;stroke-linejoin:round;stroke:rgb(0%,0%,0%);stroke-opacity:0.301961;stroke-miterlimit:10;" d="M 93.984375 173.125 C 93.984375 177.867188 86.875 177.867188 86.875 173.125 C 86.875 168.386719 93.984375 168.386719 93.984375 173.125 "/>
<path style="fill-rule:nonzero;fill:rgb(0%,0%,0%);fill-opacity:0.301961;stroke-width:0.708661;stroke-linecap:round;stroke-linejoin:round;stroke:rgb(0%,0%,0%);stroke-opacity:0.301961;stroke-miterlimit:10;" d="M 106.835938 173.125 C 106.835938 177.867188 99.722656 177.867188 99.722656 173.125 C 99.722656 168.386719 106.835938 168.386719 106.835938 173.125 "/>
<path style="fill-rule:nonzero;fill:rgb(0%,0%,0%);fill-opacity:0.301961;stroke-width:0.708661;stroke-linecap:round;stroke-linejoin:round;stroke:rgb(0%,0%,0%);stroke-opacity:0.301961;stroke-miterlimit:10;" d="M 103.175781 173.125 C 103.175781 177.867188 96.066406 177.867188 96.066406 173.125 C 96.066406 168.386719 103.175781 168.386719 103.175781 173.125 "/>
<path style="fill-rule:nonzero;fill:rgb(0%,0%,0%);fill-opacity:0.301961;stroke-width:0.708661;stroke-linecap:round;stroke-linejoin:round;stroke:rgb(0%,0%,0%);stroke-opacity:0.301961;stroke-miterlimit:10;" d="M 160.285156 13.460938 C 160.285156 18.203125 153.175781 18.203125 153.175781 13.460938 C 153.175781 8.722656 160.285156 8.722656 160.285156 13.460938 "/>
<path style="fill-rule:nonzero;fill:rgb(0%,0%,0%);fill-opacity:0.301961;stroke-width:0.708661;stroke-linecap:round;stroke-linejoin:round;stroke:rgb(0%,0%,0%);stroke-opacity:0.301961;stroke-miterlimit:10;" d="M 132.011719 173.125 C 132.011719 177.867188 124.902344 177.867188 124.902344 173.125 C 124.902344 168.386719 132.011719 168.386719 132.011719 173.125 "/>
<path style="fill-rule:nonzero;fill:rgb(0%,0%,0%);fill-opacity:0.301961;stroke-width:0.708661;stroke-linecap:round;stroke-linejoin:round;stroke:rgb(0%,0%,0%);stroke-opacity:0.301961;stroke-miterlimit:10;" d="M 89.886719 173.125 C 89.886719 177.867188 82.777344 177.867188 82.777344 173.125 C 82.777344 168.386719 89.886719 168.386719 89.886719 173.125 "/>
<path style="fill-rule:nonzero;fill:rgb(0%,0%,0%);fill-opacity:0.301961;stroke-width:0.708661;stroke-linecap:round;stroke-linejoin:round;stroke:rgb(0%,0%,0%);stroke-opacity:0.301961;stroke-miterlimit:10;" d="M 104.550781 173.125 C 104.550781 177.867188 97.441406 177.867188 97.441406 173.125 C 97.441406 168.386719 104.550781 168.386719 104.550781 173.125 "/>
<path style="fill-rule:nonzero;fill:rgb(0%,0%,0%);fill-opacity:0.301961;stroke-width:0.708661;stroke-linecap:round;stroke-linejoin:round;stroke:rgb(0%,0%,0%);stroke-opacity:0.301961;stroke-miterlimit:10;" d="M 151.894531 173.125 C 151.894531 177.867188 144.785156 177.867188 144.785156 173.125 C 144.785156 168.386719 151.894531 168.386719 151.894531 173.125 "/>
<path style="fill-rule:nonzero;fill:rgb(0%,0%,0%);fill-opacity:0.301961;stroke-width:0.708661;stroke-linecap:round;stroke-linejoin:round;stroke:rgb(0%,0%,0%);stroke-opacity:0.301961;stroke-miterlimit:10;" d="M 152.351562 13.460938 C 152.351562 18.203125 145.242188 18.203125 145.242188 13.460938 C 145.242188 8.722656 152.351562 8.722656 152.351562 13.460938 "/>
<path style="fill-rule:nonzero;fill:rgb(0%,0%,0%);fill-opacity:0.301961;stroke-width:0.708661;stroke-linecap:round;stroke-linejoin:round;stroke:rgb(0%,0%,0%);stroke-opacity:0.301961;stroke-miterlimit:10;" d="M 166.246094 173.125 C 166.246094 177.867188 159.136719 177.867188 159.136719 173.125 C 159.136719 168.386719 166.246094 168.386719 166.246094 173.125 "/>
<path style="fill-rule:nonzero;fill:rgb(0%,0%,0%);fill-opacity:0.301961;stroke-width:0.708661;stroke-linecap:round;stroke-linejoin:round;stroke:rgb(0%,0%,0%);stroke-opacity:0.301961;stroke-miterlimit:10;" d="M 155.171875 173.125 C 155.171875 177.867188 148.0625 177.867188 148.0625 173.125 C 148.0625 168.386719 155.171875 168.386719 155.171875 173.125 "/>
<path style="fill-rule:nonzero;fill:rgb(0%,0%,0%);fill-opacity:0.301961;stroke-width:0.708661;stroke-linecap:round;stroke-linejoin:round;stroke:rgb(0%,0%,0%);stroke-opacity:0.301961;stroke-miterlimit:10;" d="M 94.144531 173.125 C 94.144531 177.867188 87.035156 177.867188 87.035156 173.125 C 87.035156 168.386719 94.144531 168.386719 94.144531 173.125 "/>
<path style="fill-rule:nonzero;fill:rgb(0%,0%,0%);fill-opacity:0.301961;stroke-width:0.708661;stroke-linecap:round;stroke-linejoin:round;stroke:rgb(0%,0%,0%);stroke-opacity:0.301961;stroke-miterlimit:10;" d="M 131.996094 173.125 C 131.996094 177.867188 124.882812 177.867188 124.882812 173.125 C 124.882812 168.386719 131.996094 168.386719 131.996094 173.125 "/>
<path style="fill-rule:nonzero;fill:rgb(0%,0%,0%);fill-opacity:0.301961;stroke-width:0.708661;stroke-linecap:round;stroke-linejoin:round;stroke:rgb(0%,0%,0%);stroke-opacity:0.301961;stroke-miterlimit:10;" d="M 119.890625 173.125 C 119.890625 177.867188 112.78125 177.867188 112.78125 173.125 C 112.78125 168.386719 119.890625 168.386719 119.890625 173.125 "/>
<path style="fill-rule:nonzero;fill:rgb(0%,0%,0%);fill-opacity:0.301961;stroke-width:0.708661;stroke-linecap:round;stroke-linejoin:round;stroke:rgb(0%,0%,0%);stroke-opacity:0.301961;stroke-miterlimit:10;" d="M 93.484375 173.125 C 93.484375 177.867188 86.375 177.867188 86.375 173.125 C 86.375 168.386719 93.484375 168.386719 93.484375 173.125 "/>
<path style="fill-rule:nonzero;fill:rgb(0%,0%,0%);fill-opacity:0.301961;stroke-width:0.708661;stroke-linecap:round;stroke-linejoin:round;stroke:rgb(0%,0%,0%);stroke-opacity:0.301961;stroke-miterlimit:10;" d="M 125.867188 173.125 C 125.867188 177.867188 118.753906 177.867188 118.753906 173.125 C 118.753906 168.386719 125.867188 168.386719 125.867188 173.125 "/>
<path style="fill-rule:nonzero;fill:rgb(0%,0%,0%);fill-opacity:0.301961;stroke-width:0.708661;stroke-linecap:round;stroke-linejoin:round;stroke:rgb(0%,0%,0%);stroke-opacity:0.301961;stroke-miterlimit:10;" d="M 106.347656 173.125 C 106.347656 177.867188 99.238281 177.867188 99.238281 173.125 C 99.238281 168.386719 106.347656 168.386719 106.347656 173.125 "/>
<path style="fill-rule:nonzero;fill:rgb(0%,0%,0%);fill-opacity:0.301961;stroke-width:0.708661;stroke-linecap:round;stroke-linejoin:round;stroke:rgb(0%,0%,0%);stroke-opacity:0.301961;stroke-miterlimit:10;" d="M 92.550781 173.125 C 92.550781 177.867188 85.4375 177.867188 85.4375 173.125 C 85.4375 168.386719 92.550781 168.386719 92.550781 173.125 "/>
<path style="fill-rule:nonzero;fill:rgb(0%,0%,0%);fill-opacity:0.301961;stroke-width:0.708661;stroke-linecap:round;stroke-linejoin:round;stroke:rgb(0%,0%,0%);stroke-opacity:0.301961;stroke-miterlimit:10;" d="M 92.59375 13.460938 C 92.59375 18.203125 85.484375 18.203125 85.484375 13.460938 C 85.484375 8.722656 92.59375 8.722656 92.59375 13.460938 "/>
<path style="fill-rule:nonzero;fill:rgb(0%,0%,0%);fill-opacity:0.301961;stroke-width:0.708661;stroke-linecap:round;stroke-linejoin:round;stroke:rgb(0%,0%,0%);stroke-opacity:0.301961;stroke-miterlimit:10;" d="M 80.675781 173.125 C 80.675781 177.867188 73.566406 177.867188 73.566406 173.125 C 73.566406 168.386719 80.675781 168.386719 80.675781 173.125 "/>
<path style="fill-rule:nonzero;fill:rgb(0%,0%,0%);fill-opacity:0.301961;stroke-width:0.708661;stroke-linecap:round;stroke-linejoin:round;stroke:rgb(0%,0%,0%);stroke-opacity:0.301961;stroke-miterlimit:10;" d="M 76.664062 173.125 C 76.664062 177.867188 69.554688 177.867188 69.554688 173.125 C 69.554688 168.386719 76.664062 168.386719 76.664062 173.125 "/>
<path style="fill-rule:nonzero;fill:rgb(0%,0%,0%);fill-opacity:0.301961;stroke-width:0.708661;stroke-linecap:round;stroke-linejoin:round;stroke:rgb(0%,0%,0%);stroke-opacity:0.301961;stroke-miterlimit:10;" d="M 89.074219 173.125 C 89.074219 177.867188 81.964844 177.867188 81.964844 173.125 C 81.964844 168.386719 89.074219 168.386719 89.074219 173.125 "/>
<path style="fill-rule:nonzero;fill:rgb(0%,0%,0%);fill-opacity:0.301961;stroke-width:0.708661;stroke-linecap:round;stroke-linejoin:round;stroke:rgb(0%,0%,0%);stroke-opacity:0.301961;stroke-miterlimit:10;" d="M 158.378906 173.125 C 158.378906 177.867188 151.269531 177.867188 151.269531 173.125 C 151.269531 168.386719 158.378906 168.386719 158.378906 173.125 "/>
<path style="fill-rule:nonzero;fill:rgb(0%,0%,0%);fill-opacity:0.301961;stroke-width:0.708661;stroke-linecap:round;stroke-linejoin:round;stroke:rgb(0%,0%,0%);stroke-opacity:0.301961;stroke-miterlimit:10;" d="M 98.632812 173.125 C 98.632812 177.867188 91.519531 177.867188 91.519531 173.125 C 91.519531 168.386719 98.632812 168.386719 98.632812 173.125 "/>
<path style="fill-rule:nonzero;fill:rgb(0%,0%,0%);fill-opacity:0.301961;stroke-width:0.708661;stroke-linecap:round;stroke-linejoin:round;stroke:rgb(0%,0%,0%);stroke-opacity:0.301961;stroke-miterlimit:10;" d="M 158.28125 173.125 C 158.28125 177.867188 151.171875 177.867188 151.171875 173.125 C 151.171875 168.386719 158.28125 168.386719 158.28125 173.125 "/>
<path style="fill-rule:nonzero;fill:rgb(0%,0%,0%);fill-opacity:0.301961;stroke-width:0.708661;stroke-linecap:round;stroke-linejoin:round;stroke:rgb(0%,0%,0%);stroke-opacity:0.301961;stroke-miterlimit:10;" d="M 118.464844 173.125 C 118.464844 177.867188 111.355469 177.867188 111.355469 173.125 C 111.355469 168.386719 118.464844 168.386719 118.464844 173.125 "/>
<path style="fill-rule:nonzero;fill:rgb(0%,0%,0%);fill-opacity:0.301961;stroke-width:0.708661;stroke-linecap:round;stroke-linejoin:round;stroke:rgb(0%,0%,0%);stroke-opacity:0.301961;stroke-miterlimit:10;" d="M 119.980469 173.125 C 119.980469 177.867188 112.871094 177.867188 112.871094 173.125 C 112.871094 168.386719 119.980469 168.386719 119.980469 173.125 "/>
<path style="fill-rule:nonzero;fill:rgb(0%,0%,0%);fill-opacity:0.301961;stroke-width:0.708661;stroke-linecap:round;stroke-linejoin:round;stroke:rgb(0%,0%,0%);stroke-opacity:0.301961;stroke-miterlimit:10;" d="M 136.074219 173.125 C 136.074219 177.867188 128.960938 177.867188 128.960938 173.125 C 128.960938 168.386719 136.074219 168.386719 136.074219 173.125 "/>
<path style="fill-rule:nonzero;fill:rgb(0%,0%,0%);fill-opacity:0.301961;stroke-width:0.708661;stroke-linecap:round;stroke-linejoin:round;stroke:rgb(0%,0%,0%);stroke-opacity:0.301961;stroke-miterlimit:10;" d="M 78.304688 173.125 C 78.304688 177.867188 71.195312 177.867188 71.195312 173.125 C 71.195312 168.386719 78.304688 168.386719 78.304688 173.125 "/>
<path style="fill-rule:nonzero;fill:rgb(0%,0%,0%);fill-opacity:0.301961;stroke-width:0.708661;stroke-linecap:round;stroke-linejoin:round;stroke:rgb(0%,0%,0%);stroke-opacity:0.301961;stroke-miterlimit:10;" d="M 160.164062 13.460938 C 160.164062 18.203125 153.054688 18.203125 153.054688 13.460938 C 153.054688 8.722656 160.164062 8.722656 160.164062 13.460938 "/>
<path style="fill-rule:nonzero;fill:rgb(0%,0%,0%);fill-opacity:0.301961;stroke-width:0.708661;stroke-linecap:round;stroke-linejoin:round;stroke:rgb(0%,0%,0%);stroke-opacity:0.301961;stroke-miterlimit:10;" d="M 139.625 173.125 C 139.625 177.867188 132.511719 177.867188 132.511719 173.125 C 132.511719 168.386719 139.625 168.386719 139.625 173.125 "/>
<path style="fill-rule:nonzero;fill:rgb(0%,0%,0%);fill-opacity:0.301961;stroke-width:0.708661;stroke-linecap:round;stroke-linejoin:round;stroke:rgb(0%,0%,0%);stroke-opacity:0.301961;stroke-miterlimit:10;" d="M 101.515625 173.125 C 101.515625 177.867188 94.40625 177.867188 94.40625 173.125 C 94.40625 168.386719 101.515625 168.386719 101.515625 173.125 "/>
<path style="fill-rule:nonzero;fill:rgb(0%,0%,0%);fill-opacity:0.301961;stroke-width:0.708661;stroke-linecap:round;stroke-linejoin:round;stroke:rgb(0%,0%,0%);stroke-opacity:0.301961;stroke-miterlimit:10;" d="M 131.304688 173.125 C 131.304688 177.867188 124.195312 177.867188 124.195312 173.125 C 124.195312 168.386719 131.304688 168.386719 131.304688 173.125 "/>
<path style="fill-rule:nonzero;fill:rgb(0%,0%,0%);fill-opacity:0.301961;stroke-width:0.708661;stroke-linecap:round;stroke-linejoin:round;stroke:rgb(0%,0%,0%);stroke-opacity:0.301961;stroke-miterlimit:10;" d="M 129.914062 173.125 C 129.914062 177.867188 122.804688 177.867188 122.804688 173.125 C 122.804688 168.386719 129.914062 168.386719 129.914062 173.125 "/>
<path style="fill-rule:nonzero;fill:rgb(0%,0%,0%);fill-opacity:0.301961;stroke-width:0.708661;stroke-linecap:round;stroke-linejoin:round;stroke:rgb(0%,0%,0%);stroke-opacity:0.301961;stroke-miterlimit:10;" d="M 104.414062 173.125 C 104.414062 177.867188 97.304688 177.867188 97.304688 173.125 C 97.304688 168.386719 104.414062 168.386719 104.414062 173.125 "/>
<path style="fill-rule:nonzero;fill:rgb(0%,0%,0%);fill-opacity:0.301961;stroke-width:0.708661;stroke-linecap:round;stroke-linejoin:round;stroke:rgb(0%,0%,0%);stroke-opacity:0.301961;stroke-miterlimit:10;" d="M 75.664062 173.125 C 75.664062 177.867188 68.550781 177.867188 68.550781 173.125 C 68.550781 168.386719 75.664062 168.386719 75.664062 173.125 "/>
<path style="fill-rule:nonzero;fill:rgb(0%,0%,0%);fill-opacity:0.301961;stroke-width:0.708661;stroke-linecap:round;stroke-linejoin:round;stroke:rgb(0%,0%,0%);stroke-opacity:0.301961;stroke-miterlimit:10;" d="M 117.042969 173.125 C 117.042969 177.867188 109.933594 177.867188 109.933594 173.125 C 109.933594 168.386719 117.042969 168.386719 117.042969 173.125 "/>
<path style="fill-rule:nonzero;fill:rgb(0%,0%,0%);fill-opacity:0.301961;stroke-width:0.708661;stroke-linecap:round;stroke-linejoin:round;stroke:rgb(0%,0%,0%);stroke-opacity:0.301961;stroke-miterlimit:10;" d="M 139.152344 173.125 C 139.152344 177.867188 132.042969 177.867188 132.042969 173.125 C 132.042969 168.386719 139.152344 168.386719 139.152344 173.125 "/>
<path style="fill-rule:nonzero;fill:rgb(0%,0%,0%);fill-opacity:0.301961;stroke-width:0.708661;stroke-linecap:round;stroke-linejoin:round;stroke:rgb(0%,0%,0%);stroke-opacity:0.301961;stroke-miterlimit:10;" d="M 98.871094 173.125 C 98.871094 177.867188 91.761719 177.867188 91.761719 173.125 C 91.761719 168.386719 98.871094 168.386719 98.871094 173.125 "/>
<path style="fill-rule:nonzero;fill:rgb(0%,0%,0%);fill-opacity:0.301961;stroke-width:0.708661;stroke-linecap:round;stroke-linejoin:round;stroke:rgb(0%,0%,0%);stroke-opacity:0.301961;stroke-miterlimit:10;" d="M 129.292969 173.125 C 129.292969 177.867188 122.183594 177.867188 122.183594 173.125 C 122.183594 168.386719 129.292969 168.386719 129.292969 173.125 "/>
<path style="fill-rule:nonzero;fill:rgb(0%,0%,0%);fill-opacity:0.301961;stroke-width:0.708661;stroke-linecap:round;stroke-linejoin:round;stroke:rgb(0%,0%,0%);stroke-opacity:0.301961;stroke-miterlimit:10;" d="M 69.203125 173.125 C 69.203125 177.867188 62.09375 177.867188 62.09375 173.125 C 62.09375 168.386719 69.203125 168.386719 69.203125 173.125 "/>
<path style="fill-rule:nonzero;fill:rgb(0%,0%,0%);fill-opacity:0.301961;stroke-width:0.708661;stroke-linecap:round;stroke-linejoin:round;stroke:rgb(0%,0%,0%);stroke-opacity:0.301961;stroke-miterlimit:10;" d="M 83.679688 173.125 C 83.679688 177.867188 76.570312 177.867188 76.570312 173.125 C 76.570312 168.386719 83.679688 168.386719 83.679688 173.125 "/>
<path style="fill-rule:nonzero;fill:rgb(0%,0%,0%);fill-opacity:0.301961;stroke-width:0.708661;stroke-linecap:round;stroke-linejoin:round;stroke:rgb(0%,0%,0%);stroke-opacity:0.301961;stroke-miterlimit:10;" d="M 153.890625 13.460938 C 153.890625 18.203125 146.777344 18.203125 146.777344 13.460938 C 146.777344 8.722656 153.890625 8.722656 153.890625 13.460938 "/>
<path style="fill-rule:nonzero;fill:rgb(0%,0%,0%);fill-opacity:0.301961;stroke-width:0.708661;stroke-linecap:round;stroke-linejoin:round;stroke:rgb(0%,0%,0%);stroke-opacity:0.301961;stroke-miterlimit:10;" d="M 79.707031 173.125 C 79.707031 177.867188 72.597656 177.867188 72.597656 173.125 C 72.597656 168.386719 79.707031 168.386719 79.707031 173.125 "/>
<path style="fill-rule:nonzero;fill:rgb(0%,0%,0%);fill-opacity:0.301961;stroke-width:0.708661;stroke-linecap:round;stroke-linejoin:round;stroke:rgb(0%,0%,0%);stroke-opacity:0.301961;stroke-miterlimit:10;" d="M 80.355469 173.125 C 80.355469 177.867188 73.242188 177.867188 73.242188 173.125 C 73.242188 168.386719 80.355469 168.386719 80.355469 173.125 "/>
<path style="fill-rule:nonzero;fill:rgb(0%,0%,0%);fill-opacity:0.301961;stroke-width:0.708661;stroke-linecap:round;stroke-linejoin:round;stroke:rgb(0%,0%,0%);stroke-opacity:0.301961;stroke-miterlimit:10;" d="M 109.855469 173.125 C 109.855469 177.867188 102.742188 177.867188 102.742188 173.125 C 102.742188 168.386719 109.855469 168.386719 109.855469 173.125 "/>
<path style="fill-rule:nonzero;fill:rgb(0%,0%,0%);fill-opacity:0.301961;stroke-width:0.708661;stroke-linecap:round;stroke-linejoin:round;stroke:rgb(0%,0%,0%);stroke-opacity:0.301961;stroke-miterlimit:10;" d="M 166.597656 13.460938 C 166.597656 18.203125 159.488281 18.203125 159.488281 13.460938 C 159.488281 8.722656 166.597656 8.722656 166.597656 13.460938 "/>
<path style="fill-rule:nonzero;fill:rgb(0%,0%,0%);fill-opacity:0.301961;stroke-width:0.708661;stroke-linecap:round;stroke-linejoin:round;stroke:rgb(0%,0%,0%);stroke-opacity:0.301961;stroke-miterlimit:10;" d="M 98.964844 173.125 C 98.964844 177.867188 91.855469 177.867188 91.855469 173.125 C 91.855469 168.386719 98.964844 168.386719 98.964844 173.125 "/>
<path style="fill-rule:nonzero;fill:rgb(0%,0%,0%);fill-opacity:0.301961;stroke-width:0.708661;stroke-linecap:round;stroke-linejoin:round;stroke:rgb(0%,0%,0%);stroke-opacity:0.301961;stroke-miterlimit:10;" d="M 96.890625 173.125 C 96.890625 177.867188 89.78125 177.867188 89.78125 173.125 C 89.78125 168.386719 96.890625 168.386719 96.890625 173.125 "/>
<path style="fill-rule:nonzero;fill:rgb(0%,0%,0%);fill-opacity:0.301961;stroke-width:0.708661;stroke-linecap:round;stroke-linejoin:round;stroke:rgb(0%,0%,0%);stroke-opacity:0.301961;stroke-miterlimit:10;" d="M 135.613281 173.125 C 135.613281 177.867188 128.503906 177.867188 128.503906 173.125 C 128.503906 168.386719 135.613281 168.386719 135.613281 173.125 "/>
<path style="fill-rule:nonzero;fill:rgb(0%,0%,0%);fill-opacity:0.301961;stroke-width:0.708661;stroke-linecap:round;stroke-linejoin:round;stroke:rgb(0%,0%,0%);stroke-opacity:0.301961;stroke-miterlimit:10;" d="M 105.039062 173.125 C 105.039062 177.867188 97.929688 177.867188 97.929688 173.125 C 97.929688 168.386719 105.039062 168.386719 105.039062 173.125 "/>
<path style="fill-rule:nonzero;fill:rgb(0%,0%,0%);fill-opacity:0.301961;stroke-width:0.708661;stroke-linecap:round;stroke-linejoin:round;stroke:rgb(0%,0%,0%);stroke-opacity:0.301961;stroke-miterlimit:10;" d="M 122.085938 173.125 C 122.085938 177.867188 114.972656 177.867188 114.972656 173.125 C 114.972656 168.386719 122.085938 168.386719 122.085938 173.125 "/>
<path style="fill-rule:nonzero;fill:rgb(0%,0%,0%);fill-opacity:0.301961;stroke-width:0.708661;stroke-linecap:round;stroke-linejoin:round;stroke:rgb(0%,0%,0%);stroke-opacity:0.301961;stroke-miterlimit:10;" d="M 70.023438 173.125 C 70.023438 177.867188 62.910156 177.867188 62.910156 173.125 C 62.910156 168.386719 70.023438 168.386719 70.023438 173.125 "/>
<path style="fill-rule:nonzero;fill:rgb(0%,0%,0%);fill-opacity:0.301961;stroke-width:0.708661;stroke-linecap:round;stroke-linejoin:round;stroke:rgb(0%,0%,0%);stroke-opacity:0.301961;stroke-miterlimit:10;" d="M 88.660156 173.125 C 88.660156 177.867188 81.550781 177.867188 81.550781 173.125 C 81.550781 168.386719 88.660156 168.386719 88.660156 173.125 "/>
<path style="fill-rule:nonzero;fill:rgb(0%,0%,0%);fill-opacity:0.301961;stroke-width:0.708661;stroke-linecap:round;stroke-linejoin:round;stroke:rgb(0%,0%,0%);stroke-opacity:0.301961;stroke-miterlimit:10;" d="M 91.378906 173.125 C 91.378906 177.867188 84.269531 177.867188 84.269531 173.125 C 84.269531 168.386719 91.378906 168.386719 91.378906 173.125 "/>
<path style="fill-rule:nonzero;fill:rgb(0%,0%,0%);fill-opacity:0.301961;stroke-width:0.708661;stroke-linecap:round;stroke-linejoin:round;stroke:rgb(0%,0%,0%);stroke-opacity:0.301961;stroke-miterlimit:10;" d="M 130.753906 173.125 C 130.753906 177.867188 123.640625 177.867188 123.640625 173.125 C 123.640625 168.386719 130.753906 168.386719 130.753906 173.125 "/>
<path style="fill-rule:nonzero;fill:rgb(0%,0%,0%);fill-opacity:0.301961;stroke-width:0.708661;stroke-linecap:round;stroke-linejoin:round;stroke:rgb(0%,0%,0%);stroke-opacity:0.301961;stroke-miterlimit:10;" d="M 93.882812 173.125 C 93.882812 177.867188 86.773438 177.867188 86.773438 173.125 C 86.773438 168.386719 93.882812 168.386719 93.882812 173.125 "/>
<path style="fill-rule:nonzero;fill:rgb(0%,0%,0%);fill-opacity:0.301961;stroke-width:0.708661;stroke-linecap:round;stroke-linejoin:round;stroke:rgb(0%,0%,0%);stroke-opacity:0.301961;stroke-miterlimit:10;" d="M 108.523438 173.125 C 108.523438 177.867188 101.414062 177.867188 101.414062 173.125 C 101.414062 168.386719 108.523438 168.386719 108.523438 173.125 "/>
<path style="fill-rule:nonzero;fill:rgb(0%,0%,0%);fill-opacity:0.301961;stroke-width:0.708661;stroke-linecap:round;stroke-linejoin:round;stroke:rgb(0%,0%,0%);stroke-opacity:0.301961;stroke-miterlimit:10;" d="M 94.105469 173.125 C 94.105469 177.867188 86.996094 177.867188 86.996094 173.125 C 86.996094 168.386719 94.105469 168.386719 94.105469 173.125 "/>
<path style="fill-rule:nonzero;fill:rgb(0%,0%,0%);fill-opacity:0.301961;stroke-width:0.708661;stroke-linecap:round;stroke-linejoin:round;stroke:rgb(0%,0%,0%);stroke-opacity:0.301961;stroke-miterlimit:10;" d="M 160.582031 173.125 C 160.582031 177.867188 153.472656 177.867188 153.472656 173.125 C 153.472656 168.386719 160.582031 168.386719 160.582031 173.125 "/>
<path style="fill-rule:nonzero;fill:rgb(0%,0%,0%);fill-opacity:0.301961;stroke-width:0.708661;stroke-linecap:round;stroke-linejoin:round;stroke:rgb(0%,0%,0%);stroke-opacity:0.301961;stroke-miterlimit:10;" d="M 93.988281 173.125 C 93.988281 177.867188 86.878906 177.867188 86.878906 173.125 C 86.878906 168.386719 93.988281 168.386719 93.988281 173.125 "/>
<path style="fill-rule:nonzero;fill:rgb(0%,0%,0%);fill-opacity:0.301961;stroke-width:0.708661;stroke-linecap:round;stroke-linejoin:round;stroke:rgb(0%,0%,0%);stroke-opacity:0.301961;stroke-miterlimit:10;" d="M 136.132812 173.125 C 136.132812 177.867188 129.023438 177.867188 129.023438 173.125 C 129.023438 168.386719 136.132812 168.386719 136.132812 173.125 "/>
<path style="fill-rule:nonzero;fill:rgb(0%,0%,0%);fill-opacity:0.301961;stroke-width:0.708661;stroke-linecap:round;stroke-linejoin:round;stroke:rgb(0%,0%,0%);stroke-opacity:0.301961;stroke-miterlimit:10;" d="M 132.476562 173.125 C 132.476562 177.867188 125.367188 177.867188 125.367188 173.125 C 125.367188 168.386719 132.476562 168.386719 132.476562 173.125 "/>
<path style="fill-rule:nonzero;fill:rgb(0%,0%,0%);fill-opacity:0.301961;stroke-width:0.708661;stroke-linecap:round;stroke-linejoin:round;stroke:rgb(0%,0%,0%);stroke-opacity:0.301961;stroke-miterlimit:10;" d="M 150.199219 173.125 C 150.199219 177.867188 143.089844 177.867188 143.089844 173.125 C 143.089844 168.386719 150.199219 168.386719 150.199219 173.125 "/>
<path style="fill-rule:nonzero;fill:rgb(0%,0%,0%);fill-opacity:0.301961;stroke-width:0.708661;stroke-linecap:round;stroke-linejoin:round;stroke:rgb(0%,0%,0%);stroke-opacity:0.301961;stroke-miterlimit:10;" d="M 165.988281 173.125 C 165.988281 177.867188 158.878906 177.867188 158.878906 173.125 C 158.878906 168.386719 165.988281 168.386719 165.988281 173.125 "/>
<path style="fill-rule:nonzero;fill:rgb(0%,0%,0%);fill-opacity:0.301961;stroke-width:0.708661;stroke-linecap:round;stroke-linejoin:round;stroke:rgb(0%,0%,0%);stroke-opacity:0.301961;stroke-miterlimit:10;" d="M 142.675781 173.125 C 142.675781 177.867188 135.5625 177.867188 135.5625 173.125 C 135.5625 168.386719 142.675781 168.386719 142.675781 173.125 "/>
<path style="fill-rule:nonzero;fill:rgb(0%,0%,0%);fill-opacity:0.301961;stroke-width:0.708661;stroke-linecap:round;stroke-linejoin:round;stroke:rgb(0%,0%,0%);stroke-opacity:0.301961;stroke-miterlimit:10;" d="M 163.179688 173.125 C 163.179688 177.867188 156.070312 177.867188 156.070312 173.125 C 156.070312 168.386719 163.179688 168.386719 163.179688 173.125 "/>
<path style="fill-rule:nonzero;fill:rgb(0%,0%,0%);fill-opacity:0.301961;stroke-width:0.708661;stroke-linecap:round;stroke-linejoin:round;stroke:rgb(0%,0%,0%);stroke-opacity:0.301961;stroke-miterlimit:10;" d="M 75.988281 173.125 C 75.988281 177.867188 68.875 177.867188 68.875 173.125 C 68.875 168.386719 75.988281 168.386719 75.988281 173.125 "/>
<path style="fill-rule:nonzero;fill:rgb(0%,0%,0%);fill-opacity:0.301961;stroke-width:0.708661;stroke-linecap:round;stroke-linejoin:round;stroke:rgb(0%,0%,0%);stroke-opacity:0.301961;stroke-miterlimit:10;" d="M 104.8125 173.125 C 104.8125 177.867188 97.703125 177.867188 97.703125 173.125 C 97.703125 168.386719 104.8125 168.386719 104.8125 173.125 "/>
<path style="fill-rule:nonzero;fill:rgb(0%,0%,0%);fill-opacity:0.301961;stroke-width:0.708661;stroke-linecap:round;stroke-linejoin:round;stroke:rgb(0%,0%,0%);stroke-opacity:0.301961;stroke-miterlimit:10;" d="M 134.363281 173.125 C 134.363281 177.867188 127.253906 177.867188 127.253906 173.125 C 127.253906 168.386719 134.363281 168.386719 134.363281 173.125 "/>
<path style="fill-rule:nonzero;fill:rgb(0%,0%,0%);fill-opacity:0.301961;stroke-width:0.708661;stroke-linecap:round;stroke-linejoin:round;stroke:rgb(0%,0%,0%);stroke-opacity:0.301961;stroke-miterlimit:10;" d="M 101.382812 173.125 C 101.382812 177.867188 94.273438 177.867188 94.273438 173.125 C 94.273438 168.386719 101.382812 168.386719 101.382812 173.125 "/>
<path style="fill-rule:nonzero;fill:rgb(0%,0%,0%);fill-opacity:0.301961;stroke-width:0.708661;stroke-linecap:round;stroke-linejoin:round;stroke:rgb(0%,0%,0%);stroke-opacity:0.301961;stroke-miterlimit:10;" d="M 69.441406 173.125 C 69.441406 177.867188 62.332031 177.867188 62.332031 173.125 C 62.332031 168.386719 69.441406 168.386719 69.441406 173.125 "/>
<path style="fill-rule:nonzero;fill:rgb(0%,0%,0%);fill-opacity:0.301961;stroke-width:0.708661;stroke-linecap:round;stroke-linejoin:round;stroke:rgb(0%,0%,0%);stroke-opacity:0.301961;stroke-miterlimit:10;" d="M 136.714844 173.125 C 136.714844 177.867188 129.605469 177.867188 129.605469 173.125 C 129.605469 168.386719 136.714844 168.386719 136.714844 173.125 "/>
<path style="fill-rule:nonzero;fill:rgb(0%,0%,0%);fill-opacity:0.301961;stroke-width:0.708661;stroke-linecap:round;stroke-linejoin:round;stroke:rgb(0%,0%,0%);stroke-opacity:0.301961;stroke-miterlimit:10;" d="M 71.746094 173.125 C 71.746094 177.867188 64.632812 177.867188 64.632812 173.125 C 64.632812 168.386719 71.746094 168.386719 71.746094 173.125 "/>
<path style="fill-rule:nonzero;fill:rgb(0%,0%,0%);fill-opacity:0.301961;stroke-width:0.708661;stroke-linecap:round;stroke-linejoin:round;stroke:rgb(0%,0%,0%);stroke-opacity:0.301961;stroke-miterlimit:10;" d="M 131.636719 173.125 C 131.636719 177.867188 124.523438 177.867188 124.523438 173.125 C 124.523438 168.386719 131.636719 168.386719 131.636719 173.125 "/>
<path style="fill-rule:nonzero;fill:rgb(0%,0%,0%);fill-opacity:0.301961;stroke-width:0.708661;stroke-linecap:round;stroke-linejoin:round;stroke:rgb(0%,0%,0%);stroke-opacity:0.301961;stroke-miterlimit:10;" d="M 146.566406 13.460938 C 146.566406 18.203125 139.453125 18.203125 139.453125 13.460938 C 139.453125 8.722656 146.566406 8.722656 146.566406 13.460938 "/>
<path style="fill-rule:nonzero;fill:rgb(0%,0%,0%);fill-opacity:0.301961;stroke-width:0.708661;stroke-linecap:round;stroke-linejoin:round;stroke:rgb(0%,0%,0%);stroke-opacity:0.301961;stroke-miterlimit:10;" d="M 135.238281 173.125 C 135.238281 177.867188 128.128906 177.867188 128.128906 173.125 C 128.128906 168.386719 135.238281 168.386719 135.238281 173.125 "/>
<path style="fill-rule:nonzero;fill:rgb(0%,0%,0%);fill-opacity:0.301961;stroke-width:0.708661;stroke-linecap:round;stroke-linejoin:round;stroke:rgb(0%,0%,0%);stroke-opacity:0.301961;stroke-miterlimit:10;" d="M 84.351562 173.125 C 84.351562 177.867188 77.238281 177.867188 77.238281 173.125 C 77.238281 168.386719 84.351562 168.386719 84.351562 173.125 "/>
<path style="fill-rule:nonzero;fill:rgb(0%,0%,0%);fill-opacity:0.301961;stroke-width:0.708661;stroke-linecap:round;stroke-linejoin:round;stroke:rgb(0%,0%,0%);stroke-opacity:0.301961;stroke-miterlimit:10;" d="M 96.015625 173.125 C 96.015625 177.867188 88.90625 177.867188 88.90625 173.125 C 88.90625 168.386719 96.015625 168.386719 96.015625 173.125 "/>
<path style="fill-rule:nonzero;fill:rgb(0%,0%,0%);fill-opacity:0.301961;stroke-width:0.708661;stroke-linecap:round;stroke-linejoin:round;stroke:rgb(0%,0%,0%);stroke-opacity:0.301961;stroke-miterlimit:10;" d="M 72.34375 173.125 C 72.34375 177.867188 65.230469 177.867188 65.230469 173.125 C 65.230469 168.386719 72.34375 168.386719 72.34375 173.125 "/>
<path style="fill-rule:nonzero;fill:rgb(0%,0%,0%);fill-opacity:0.301961;stroke-width:0.708661;stroke-linecap:round;stroke-linejoin:round;stroke:rgb(0%,0%,0%);stroke-opacity:0.301961;stroke-miterlimit:10;" d="M 158.753906 173.125 C 158.753906 177.867188 151.640625 177.867188 151.640625 173.125 C 151.640625 168.386719 158.753906 168.386719 158.753906 173.125 "/>
<path style="fill-rule:nonzero;fill:rgb(0%,0%,0%);fill-opacity:0.301961;stroke-width:0.708661;stroke-linecap:round;stroke-linejoin:round;stroke:rgb(0%,0%,0%);stroke-opacity:0.301961;stroke-miterlimit:10;" d="M 78.1875 173.125 C 78.1875 177.867188 71.078125 177.867188 71.078125 173.125 C 71.078125 168.386719 78.1875 168.386719 78.1875 173.125 "/>
<path style="fill-rule:nonzero;fill:rgb(0%,0%,0%);fill-opacity:0.301961;stroke-width:0.708661;stroke-linecap:round;stroke-linejoin:round;stroke:rgb(0%,0%,0%);stroke-opacity:0.301961;stroke-miterlimit:10;" d="M 134.203125 173.125 C 134.203125 177.867188 127.09375 177.867188 127.09375 173.125 C 127.09375 168.386719 134.203125 168.386719 134.203125 173.125 "/>
<path style="fill-rule:nonzero;fill:rgb(0%,0%,0%);fill-opacity:0.301961;stroke-width:0.708661;stroke-linecap:round;stroke-linejoin:round;stroke:rgb(0%,0%,0%);stroke-opacity:0.301961;stroke-miterlimit:10;" d="M 147.765625 173.125 C 147.765625 177.867188 140.65625 177.867188 140.65625 173.125 C 140.65625 168.386719 147.765625 168.386719 147.765625 173.125 "/>
<path style="fill-rule:nonzero;fill:rgb(0%,0%,0%);fill-opacity:0.301961;stroke-width:0.708661;stroke-linecap:round;stroke-linejoin:round;stroke:rgb(0%,0%,0%);stroke-opacity:0.301961;stroke-miterlimit:10;" d="M 98.835938 173.125 C 98.835938 177.867188 91.722656 177.867188 91.722656 173.125 C 91.722656 168.386719 98.835938 168.386719 98.835938 173.125 "/>
<path style="fill-rule:nonzero;fill:rgb(0%,0%,0%);fill-opacity:0.301961;stroke-width:0.708661;stroke-linecap:round;stroke-linejoin:round;stroke:rgb(0%,0%,0%);stroke-opacity:0.301961;stroke-miterlimit:10;" d="M 132.617188 173.125 C 132.617188 177.867188 125.507812 177.867188 125.507812 173.125 C 125.507812 168.386719 132.617188 168.386719 132.617188 173.125 "/>
<path style="fill-rule:nonzero;fill:rgb(0%,0%,0%);fill-opacity:0.301961;stroke-width:0.708661;stroke-linecap:round;stroke-linejoin:round;stroke:rgb(0%,0%,0%);stroke-opacity:0.301961;stroke-miterlimit:10;" d="M 129.894531 173.125 C 129.894531 177.867188 122.785156 177.867188 122.785156 173.125 C 122.785156 168.386719 129.894531 168.386719 129.894531 173.125 "/>
<path style="fill-rule:nonzero;fill:rgb(0%,0%,0%);fill-opacity:0.301961;stroke-width:0.708661;stroke-linecap:round;stroke-linejoin:round;stroke:rgb(0%,0%,0%);stroke-opacity:0.301961;stroke-miterlimit:10;" d="M 88.132812 173.125 C 88.132812 177.867188 81.023438 177.867188 81.023438 173.125 C 81.023438 168.386719 88.132812 168.386719 88.132812 173.125 "/>
<path style="fill-rule:nonzero;fill:rgb(0%,0%,0%);fill-opacity:0.301961;stroke-width:0.708661;stroke-linecap:round;stroke-linejoin:round;stroke:rgb(0%,0%,0%);stroke-opacity:0.301961;stroke-miterlimit:10;" d="M 85.042969 173.125 C 85.042969 177.867188 77.929688 177.867188 77.929688 173.125 C 77.929688 168.386719 85.042969 168.386719 85.042969 173.125 "/>
<path style="fill-rule:nonzero;fill:rgb(0%,0%,0%);fill-opacity:0.301961;stroke-width:0.708661;stroke-linecap:round;stroke-linejoin:round;stroke:rgb(0%,0%,0%);stroke-opacity:0.301961;stroke-miterlimit:10;" d="M 109.933594 173.125 C 109.933594 177.867188 102.824219 177.867188 102.824219 173.125 C 102.824219 168.386719 109.933594 168.386719 109.933594 173.125 "/>
<path style="fill-rule:nonzero;fill:rgb(0%,0%,0%);fill-opacity:0.301961;stroke-width:0.708661;stroke-linecap:round;stroke-linejoin:round;stroke:rgb(0%,0%,0%);stroke-opacity:0.301961;stroke-miterlimit:10;" d="M 127.773438 173.125 C 127.773438 177.867188 120.664062 177.867188 120.664062 173.125 C 120.664062 168.386719 127.773438 168.386719 127.773438 173.125 "/>
<path style="fill-rule:nonzero;fill:rgb(0%,0%,0%);fill-opacity:0.301961;stroke-width:0.708661;stroke-linecap:round;stroke-linejoin:round;stroke:rgb(0%,0%,0%);stroke-opacity:0.301961;stroke-miterlimit:10;" d="M 155.765625 173.125 C 155.765625 177.867188 148.65625 177.867188 148.65625 173.125 C 148.65625 168.386719 155.765625 168.386719 155.765625 173.125 "/>
<path style="fill-rule:nonzero;fill:rgb(0%,0%,0%);fill-opacity:0.301961;stroke-width:0.708661;stroke-linecap:round;stroke-linejoin:round;stroke:rgb(0%,0%,0%);stroke-opacity:0.301961;stroke-miterlimit:10;" d="M 148.101562 173.125 C 148.101562 177.867188 140.992188 177.867188 140.992188 173.125 C 140.992188 168.386719 148.101562 168.386719 148.101562 173.125 "/>
<path style="fill-rule:nonzero;fill:rgb(0%,0%,0%);fill-opacity:0.301961;stroke-width:0.708661;stroke-linecap:round;stroke-linejoin:round;stroke:rgb(0%,0%,0%);stroke-opacity:0.301961;stroke-miterlimit:10;" d="M 95.28125 173.125 C 95.28125 177.867188 88.171875 177.867188 88.171875 173.125 C 88.171875 168.386719 95.28125 168.386719 95.28125 173.125 "/>
<path style="fill-rule:nonzero;fill:rgb(0%,0%,0%);fill-opacity:0.301961;stroke-width:0.708661;stroke-linecap:round;stroke-linejoin:round;stroke:rgb(0%,0%,0%);stroke-opacity:0.301961;stroke-miterlimit:10;" d="M 124.199219 173.125 C 124.199219 177.867188 117.089844 177.867188 117.089844 173.125 C 117.089844 168.386719 124.199219 168.386719 124.199219 173.125 "/>
<path style="fill-rule:nonzero;fill:rgb(0%,0%,0%);fill-opacity:0.301961;stroke-width:0.708661;stroke-linecap:round;stroke-linejoin:round;stroke:rgb(0%,0%,0%);stroke-opacity:0.301961;stroke-miterlimit:10;" d="M 140.683594 173.125 C 140.683594 177.867188 133.570312 177.867188 133.570312 173.125 C 133.570312 168.386719 140.683594 168.386719 140.683594 173.125 "/>
<path style="fill-rule:nonzero;fill:rgb(0%,0%,0%);fill-opacity:0.301961;stroke-width:0.708661;stroke-linecap:round;stroke-linejoin:round;stroke:rgb(0%,0%,0%);stroke-opacity:0.301961;stroke-miterlimit:10;" d="M 66.023438 173.125 C 66.023438 177.867188 58.910156 177.867188 58.910156 173.125 C 58.910156 168.386719 66.023438 168.386719 66.023438 173.125 "/>
<path style="fill-rule:nonzero;fill:rgb(0%,0%,0%);fill-opacity:0.301961;stroke-width:0.708661;stroke-linecap:round;stroke-linejoin:round;stroke:rgb(0%,0%,0%);stroke-opacity:0.301961;stroke-miterlimit:10;" d="M 99.167969 173.125 C 99.167969 177.867188 92.054688 177.867188 92.054688 173.125 C 92.054688 168.386719 99.167969 168.386719 99.167969 173.125 "/>
<path style="fill-rule:nonzero;fill:rgb(0%,0%,0%);fill-opacity:0.301961;stroke-width:0.708661;stroke-linecap:round;stroke-linejoin:round;stroke:rgb(0%,0%,0%);stroke-opacity:0.301961;stroke-miterlimit:10;" d="M 149.253906 13.460938 C 149.253906 18.203125 142.144531 18.203125 142.144531 13.460938 C 142.144531 8.722656 149.253906 8.722656 149.253906 13.460938 "/>
<path style="fill-rule:nonzero;fill:rgb(0%,0%,0%);fill-opacity:0.301961;stroke-width:0.708661;stroke-linecap:round;stroke-linejoin:round;stroke:rgb(0%,0%,0%);stroke-opacity:0.301961;stroke-miterlimit:10;" d="M 166.261719 173.125 C 166.261719 177.867188 159.148438 177.867188 159.148438 173.125 C 159.148438 168.386719 166.261719 168.386719 166.261719 173.125 "/>
<path style="fill-rule:nonzero;fill:rgb(0%,0%,0%);fill-opacity:0.301961;stroke-width:0.708661;stroke-linecap:round;stroke-linejoin:round;stroke:rgb(0%,0%,0%);stroke-opacity:0.301961;stroke-miterlimit:10;" d="M 131.988281 173.125 C 131.988281 177.867188 124.878906 177.867188 124.878906 173.125 C 124.878906 168.386719 131.988281 168.386719 131.988281 173.125 "/>
<path style="fill-rule:nonzero;fill:rgb(0%,0%,0%);fill-opacity:0.301961;stroke-width:0.708661;stroke-linecap:round;stroke-linejoin:round;stroke:rgb(0%,0%,0%);stroke-opacity:0.301961;stroke-miterlimit:10;" d="M 126.804688 173.125 C 126.804688 177.867188 119.691406 177.867188 119.691406 173.125 C 119.691406 168.386719 126.804688 168.386719 126.804688 173.125 "/>
<path style="fill-rule:nonzero;fill:rgb(0%,0%,0%);fill-opacity:0.301961;stroke-width:0.708661;stroke-linecap:round;stroke-linejoin:round;stroke:rgb(0%,0%,0%);stroke-opacity:0.301961;stroke-miterlimit:10;" d="M 151.320312 13.460938 C 151.320312 18.203125 144.210938 18.203125 144.210938 13.460938 C 144.210938 8.722656 151.320312 8.722656 151.320312 13.460938 "/>
<path style="fill-rule:nonzero;fill:rgb(0%,0%,0%);fill-opacity:0.301961;stroke-width:0.708661;stroke-linecap:round;stroke-linejoin:round;stroke:rgb(0%,0%,0%);stroke-opacity:0.301961;stroke-miterlimit:10;" d="M 84.589844 173.125 C 84.589844 177.867188 77.480469 177.867188 77.480469 173.125 C 77.480469 168.386719 84.589844 168.386719 84.589844 173.125 "/>
<path style="fill-rule:nonzero;fill:rgb(0%,0%,0%);fill-opacity:0.301961;stroke-width:0.708661;stroke-linecap:round;stroke-linejoin:round;stroke:rgb(0%,0%,0%);stroke-opacity:0.301961;stroke-miterlimit:10;" d="M 140.972656 13.460938 C 140.972656 18.203125 133.863281 18.203125 133.863281 13.460938 C 133.863281 8.722656 140.972656 8.722656 140.972656 13.460938 "/>
<path style="fill-rule:nonzero;fill:rgb(0%,0%,0%);fill-opacity:0.301961;stroke-width:0.708661;stroke-linecap:round;stroke-linejoin:round;stroke:rgb(0%,0%,0%);stroke-opacity:0.301961;stroke-miterlimit:10;" d="M 74.015625 173.125 C 74.015625 177.867188 66.902344 177.867188 66.902344 173.125 C 66.902344 168.386719 74.015625 168.386719 74.015625 173.125 "/>
<path style="fill-rule:nonzero;fill:rgb(0%,0%,0%);fill-opacity:0.301961;stroke-width:0.708661;stroke-linecap:round;stroke-linejoin:round;stroke:rgb(0%,0%,0%);stroke-opacity:0.301961;stroke-miterlimit:10;" d="M 74.140625 173.125 C 74.140625 177.867188 67.027344 177.867188 67.027344 173.125 C 67.027344 168.386719 74.140625 168.386719 74.140625 173.125 "/>
<path style="fill-rule:nonzero;fill:rgb(0%,0%,0%);fill-opacity:0.301961;stroke-width:0.708661;stroke-linecap:round;stroke-linejoin:round;stroke:rgb(0%,0%,0%);stroke-opacity:0.301961;stroke-miterlimit:10;" d="M 143.816406 173.125 C 143.816406 177.867188 136.703125 177.867188 136.703125 173.125 C 136.703125 168.386719 143.816406 168.386719 143.816406 173.125 "/>
<path style="fill-rule:nonzero;fill:rgb(0%,0%,0%);fill-opacity:0.301961;stroke-width:0.708661;stroke-linecap:round;stroke-linejoin:round;stroke:rgb(0%,0%,0%);stroke-opacity:0.301961;stroke-miterlimit:10;" d="M 157.808594 173.125 C 157.808594 177.867188 150.699219 177.867188 150.699219 173.125 C 150.699219 168.386719 157.808594 168.386719 157.808594 173.125 "/>
<path style="fill-rule:nonzero;fill:rgb(0%,0%,0%);fill-opacity:0.301961;stroke-width:0.708661;stroke-linecap:round;stroke-linejoin:round;stroke:rgb(0%,0%,0%);stroke-opacity:0.301961;stroke-miterlimit:10;" d="M 80.972656 173.125 C 80.972656 177.867188 73.863281 177.867188 73.863281 173.125 C 73.863281 168.386719 80.972656 168.386719 80.972656 173.125 "/>
<path style="fill-rule:nonzero;fill:rgb(0%,0%,0%);fill-opacity:0.301961;stroke-width:0.708661;stroke-linecap:round;stroke-linejoin:round;stroke:rgb(0%,0%,0%);stroke-opacity:0.301961;stroke-miterlimit:10;" d="M 100.046875 173.125 C 100.046875 177.867188 92.9375 177.867188 92.9375 173.125 C 92.9375 168.386719 100.046875 168.386719 100.046875 173.125 "/>
<path style="fill-rule:nonzero;fill:rgb(0%,0%,0%);fill-opacity:0.301961;stroke-width:0.708661;stroke-linecap:round;stroke-linejoin:round;stroke:rgb(0%,0%,0%);stroke-opacity:0.301961;stroke-miterlimit:10;" d="M 165.28125 173.125 C 165.28125 177.867188 158.171875 177.867188 158.171875 173.125 C 158.171875 168.386719 165.28125 168.386719 165.28125 173.125 "/>
<path style="fill-rule:nonzero;fill:rgb(0%,0%,0%);fill-opacity:0.301961;stroke-width:0.708661;stroke-linecap:round;stroke-linejoin:round;stroke:rgb(0%,0%,0%);stroke-opacity:0.301961;stroke-miterlimit:10;" d="M 164.191406 13.460938 C 164.191406 18.203125 157.078125 18.203125 157.078125 13.460938 C 157.078125 8.722656 164.191406 8.722656 164.191406 13.460938 "/>
<path style="fill-rule:nonzero;fill:rgb(0%,0%,0%);fill-opacity:0.301961;stroke-width:0.708661;stroke-linecap:round;stroke-linejoin:round;stroke:rgb(0%,0%,0%);stroke-opacity:0.301961;stroke-miterlimit:10;" d="M 124.152344 173.125 C 124.152344 177.867188 117.042969 177.867188 117.042969 173.125 C 117.042969 168.386719 124.152344 168.386719 124.152344 173.125 "/>
<path style="fill-rule:nonzero;fill:rgb(0%,0%,0%);fill-opacity:0.301961;stroke-width:0.708661;stroke-linecap:round;stroke-linejoin:round;stroke:rgb(0%,0%,0%);stroke-opacity:0.301961;stroke-miterlimit:10;" d="M 147.3125 173.125 C 147.3125 177.867188 140.203125 177.867188 140.203125 173.125 C 140.203125 168.386719 147.3125 168.386719 147.3125 173.125 "/>
<path style="fill-rule:nonzero;fill:rgb(0%,0%,0%);fill-opacity:0.301961;stroke-width:0.708661;stroke-linecap:round;stroke-linejoin:round;stroke:rgb(0%,0%,0%);stroke-opacity:0.301961;stroke-miterlimit:10;" d="M 125.902344 173.125 C 125.902344 177.867188 118.792969 177.867188 118.792969 173.125 C 118.792969 168.386719 125.902344 168.386719 125.902344 173.125 "/>
<path style="fill-rule:nonzero;fill:rgb(0%,0%,0%);fill-opacity:0.301961;stroke-width:0.708661;stroke-linecap:round;stroke-linejoin:round;stroke:rgb(0%,0%,0%);stroke-opacity:0.301961;stroke-miterlimit:10;" d="M 84.550781 173.125 C 84.550781 177.867188 77.441406 177.867188 77.441406 173.125 C 77.441406 168.386719 84.550781 168.386719 84.550781 173.125 "/>
<path style="fill-rule:nonzero;fill:rgb(0%,0%,0%);fill-opacity:0.301961;stroke-width:0.708661;stroke-linecap:round;stroke-linejoin:round;stroke:rgb(0%,0%,0%);stroke-opacity:0.301961;stroke-miterlimit:10;" d="M 133.054688 173.125 C 133.054688 177.867188 125.945312 177.867188 125.945312 173.125 C 125.945312 168.386719 133.054688 168.386719 133.054688 173.125 "/>
<path style="fill-rule:nonzero;fill:rgb(0%,0%,0%);fill-opacity:0.301961;stroke-width:0.708661;stroke-linecap:round;stroke-linejoin:round;stroke:rgb(0%,0%,0%);stroke-opacity:0.301961;stroke-miterlimit:10;" d="M 87.417969 173.125 C 87.417969 177.867188 80.308594 177.867188 80.308594 173.125 C 80.308594 168.386719 87.417969 168.386719 87.417969 173.125 "/>
<path style="fill-rule:nonzero;fill:rgb(0%,0%,0%);fill-opacity:0.301961;stroke-width:0.708661;stroke-linecap:round;stroke-linejoin:round;stroke:rgb(0%,0%,0%);stroke-opacity:0.301961;stroke-miterlimit:10;" d="M 107.777344 173.125 C 107.777344 177.867188 100.667969 177.867188 100.667969 173.125 C 100.667969 168.386719 107.777344 168.386719 107.777344 173.125 "/>
<path style="fill-rule:nonzero;fill:rgb(0%,0%,0%);fill-opacity:0.301961;stroke-width:0.708661;stroke-linecap:round;stroke-linejoin:round;stroke:rgb(0%,0%,0%);stroke-opacity:0.301961;stroke-miterlimit:10;" d="M 88.273438 173.125 C 88.273438 177.867188 81.164062 177.867188 81.164062 173.125 C 81.164062 168.386719 88.273438 168.386719 88.273438 173.125 "/>
<path style="fill-rule:nonzero;fill:rgb(0%,0%,0%);fill-opacity:0.301961;stroke-width:0.708661;stroke-linecap:round;stroke-linejoin:round;stroke:rgb(0%,0%,0%);stroke-opacity:0.301961;stroke-miterlimit:10;" d="M 77.140625 173.125 C 77.140625 177.867188 70.03125 177.867188 70.03125 173.125 C 70.03125 168.386719 77.140625 168.386719 77.140625 173.125 "/>
<path style="fill-rule:nonzero;fill:rgb(0%,0%,0%);fill-opacity:0.301961;stroke-width:0.708661;stroke-linecap:round;stroke-linejoin:round;stroke:rgb(0%,0%,0%);stroke-opacity:0.301961;stroke-miterlimit:10;" d="M 164.105469 13.460938 C 164.105469 18.203125 156.992188 18.203125 156.992188 13.460938 C 156.992188 8.722656 164.105469 8.722656 164.105469 13.460938 "/>
<path style="fill-rule:nonzero;fill:rgb(0%,0%,0%);fill-opacity:0.301961;stroke-width:0.708661;stroke-linecap:round;stroke-linejoin:round;stroke:rgb(0%,0%,0%);stroke-opacity:0.301961;stroke-miterlimit:10;" d="M 142.070312 173.125 C 142.070312 177.867188 134.957031 177.867188 134.957031 173.125 C 134.957031 168.386719 142.070312 168.386719 142.070312 173.125 "/>
<path style="fill-rule:nonzero;fill:rgb(0%,0%,0%);fill-opacity:0.301961;stroke-width:0.708661;stroke-linecap:round;stroke-linejoin:round;stroke:rgb(0%,0%,0%);stroke-opacity:0.301961;stroke-miterlimit:10;" d="M 124.265625 173.125 C 124.265625 177.867188 117.15625 177.867188 117.15625 173.125 C 117.15625 168.386719 124.265625 168.386719 124.265625 173.125 "/>
<path style="fill-rule:nonzero;fill:rgb(0%,0%,0%);fill-opacity:0.301961;stroke-width:0.708661;stroke-linecap:round;stroke-linejoin:round;stroke:rgb(0%,0%,0%);stroke-opacity:0.301961;stroke-miterlimit:10;" d="M 86.039062 173.125 C 86.039062 177.867188 78.929688 177.867188 78.929688 173.125 C 78.929688 168.386719 86.039062 168.386719 86.039062 173.125 "/>
<path style="fill-rule:nonzero;fill:rgb(0%,0%,0%);fill-opacity:0.301961;stroke-width:0.708661;stroke-linecap:round;stroke-linejoin:round;stroke:rgb(0%,0%,0%);stroke-opacity:0.301961;stroke-miterlimit:10;" d="M 100.910156 173.125 C 100.910156 177.867188 93.796875 177.867188 93.796875 173.125 C 93.796875 168.386719 100.910156 168.386719 100.910156 173.125 "/>
<path style="fill-rule:nonzero;fill:rgb(0%,0%,0%);fill-opacity:0.301961;stroke-width:0.708661;stroke-linecap:round;stroke-linejoin:round;stroke:rgb(0%,0%,0%);stroke-opacity:0.301961;stroke-miterlimit:10;" d="M 83.574219 173.125 C 83.574219 177.867188 76.464844 177.867188 76.464844 173.125 C 76.464844 168.386719 83.574219 168.386719 83.574219 173.125 "/>
<path style="fill-rule:nonzero;fill:rgb(0%,0%,0%);fill-opacity:0.301961;stroke-width:0.708661;stroke-linecap:round;stroke-linejoin:round;stroke:rgb(0%,0%,0%);stroke-opacity:0.301961;stroke-miterlimit:10;" d="M 113.65625 173.125 C 113.65625 177.867188 106.542969 177.867188 106.542969 173.125 C 106.542969 168.386719 113.65625 168.386719 113.65625 173.125 "/>
<path style="fill-rule:nonzero;fill:rgb(0%,0%,0%);fill-opacity:0.301961;stroke-width:0.708661;stroke-linecap:round;stroke-linejoin:round;stroke:rgb(0%,0%,0%);stroke-opacity:0.301961;stroke-miterlimit:10;" d="M 81.378906 173.125 C 81.378906 177.867188 74.265625 177.867188 74.265625 173.125 C 74.265625 168.386719 81.378906 168.386719 81.378906 173.125 "/>
<path style=" stroke:none;fill-rule:nonzero;fill:rgb(60%,60%,60%);fill-opacity:0.4;" d="M 54.738281 171.71875 L 57.484375 171.566406 L 60.230469 171.398438 L 62.976562 171.210938 L 65.722656 171.003906 L 68.46875 170.773438 L 71.214844 170.519531 L 73.960938 170.238281 L 76.707031 169.925781 L 79.453125 169.578125 L 82.199219 169.195312 L 84.945312 168.769531 L 87.691406 168.300781 L 90.4375 167.777344 L 93.183594 167.199219 L 95.925781 166.5625 L 98.671875 165.851562 L 101.417969 165.070312 L 104.164062 164.199219 L 106.910156 163.234375 L 109.65625 162.160156 L 112.402344 160.972656 L 115.148438 159.648438 L 117.894531 158.171875 L 120.640625 156.519531 L 123.386719 154.667969 L 126.132812 152.578125 L 128.878906 150.210938 L 131.625 147.5 L 134.371094 144.371094 L 137.117188 140.714844 L 139.863281 136.410156 L 142.609375 131.304688 L 145.355469 125.257812 L 148.101562 118.175781 L 150.847656 110.054688 L 153.59375 101.027344 L 156.339844 91.355469 L 159.085938 81.394531 L 161.832031 71.539062 L 164.578125 62.171875 L 167.324219 53.589844 L 170.070312 45.992188 L 172.816406 39.464844 L 175.5625 33.996094 L 178.308594 29.519531 L 181.054688 25.914062 L 183.800781 23.054688 L 186.546875 20.8125 L 189.292969 19.070312 L 192.039062 17.726562 L 194.785156 16.699219 L 197.53125 15.910156 L 200.277344 15.3125 L 203.023438 14.859375 L 205.769531 14.515625 L 208.515625 14.257812 L 211.261719 14.058594 L 214.007812 13.914062 L 216.753906 13.800781 L 219.5 13.71875 L 222.246094 13.652344 L 224.992188 13.605469 L 227.738281 13.570312 L 230.484375 13.542969 L 233.230469 13.523438 L 235.976562 13.507812 L 238.722656 13.496094 L 244.214844 13.480469 L 249.707031 13.472656 L 252.453125 13.472656 L 255.199219 13.46875 L 257.945312 13.46875 L 260.691406 13.464844 L 271.671875 13.464844 L 271.671875 19.265625 L 268.925781 19.871094 L 266.183594 20.535156 L 263.4375 21.265625 L 260.691406 22.070312 L 257.945312 22.949219 L 255.199219 23.914062 L 252.453125 24.96875 L 249.707031 26.121094 L 246.960938 27.382812 L 244.214844 28.753906 L 241.46875 30.246094 L 238.722656 31.867188 L 235.976562 33.625 L 233.230469 35.523438 L 230.484375 37.574219 L 227.738281 39.777344 L 224.992188 42.148438 L 222.246094 44.679688 L 219.5 47.382812 L 216.753906 50.257812 L 214.007812 53.304688 L 211.261719 56.519531 L 208.515625 59.902344 L 205.769531 63.445312 L 203.023438 67.136719 L 200.277344 70.972656 L 197.53125 74.933594 L 194.785156 79.011719 L 192.039062 83.183594 L 189.292969 87.433594 L 186.546875 91.746094 L 183.800781 96.097656 L 178.308594 104.832031 L 175.5625 109.183594 L 172.816406 113.5 L 170.070312 117.765625 L 167.324219 121.972656 L 164.578125 126.109375 L 161.832031 130.179688 L 159.085938 134.175781 L 156.339844 138.101562 L 153.59375 141.957031 L 150.847656 145.738281 L 148.101562 149.414062 L 145.355469 152.941406 L 142.609375 156.246094 L 139.863281 159.257812 L 137.117188 161.917969 L 134.371094 164.195312 L 131.625 166.089844 L 128.878906 167.636719 L 126.132812 168.875 L 123.386719 169.855469 L 120.640625 170.621094 L 117.894531 171.214844 L 115.148438 171.671875 L 112.402344 172.019531 L 109.65625 172.289062 L 106.910156 172.492188 L 104.164062 172.648438 L 101.417969 172.765625 L 98.671875 172.855469 L 95.925781 172.921875 L 93.183594 172.972656 L 90.4375 173.007812 L 87.691406 173.039062 L 82.199219 173.078125 L 79.453125 173.089844 L 73.960938 173.105469 L 62.976562 173.121094 L 57.484375 173.121094 L 54.738281 173.125 Z M 54.738281 171.71875 "/>
<path style="fill:none;stroke-width:2.133957;stroke-linecap:butt;stroke-linejoin:round;stroke:rgb(20%,40%,100%);stroke-opacity:1;stroke-miterlimit:1;" d="M 54.738281 173.0625 L 57.484375 173.050781 L 62.976562 173.011719 L 65.722656 172.988281 L 68.46875 172.957031 L 71.214844 172.921875 L 73.960938 172.878906 L 76.707031 172.824219 L 79.453125 172.757812 L 82.199219 172.679688 L 84.945312 172.585938 L 87.691406 172.46875 L 90.4375 172.328125 L 93.183594 172.15625 L 95.925781 171.949219 L 98.671875 171.695312 L 101.417969 171.390625 L 104.164062 171.023438 L 106.910156 170.578125 L 109.65625 170.039062 L 112.402344 169.390625 L 115.148438 168.605469 L 117.894531 167.667969 L 120.640625 166.539062 L 123.386719 165.191406 L 126.132812 163.585938 L 128.878906 161.679688 L 131.625 159.425781 L 134.371094 156.773438 L 137.117188 153.683594 L 139.863281 150.097656 L 142.609375 145.984375 L 145.355469 141.300781 L 148.101562 136.039062 L 150.847656 130.199219 L 153.59375 123.8125 L 156.339844 116.929688 L 159.085938 109.640625 L 161.832031 102.054688 L 164.578125 94.304688 L 167.324219 86.535156 L 170.070312 78.890625 L 172.816406 71.511719 L 175.5625 64.515625 L 178.308594 57.992188 L 181.054688 52.007812 L 183.800781 46.59375 L 186.546875 41.765625 L 189.292969 37.503906 L 192.039062 33.785156 L 194.785156 30.570312 L 197.53125 27.8125 L 200.277344 25.460938 L 203.023438 23.46875 L 205.769531 21.785156 L 208.515625 20.375 L 211.261719 19.195312 L 214.007812 18.210938 L 216.753906 17.390625 L 219.5 16.707031 L 222.246094 16.140625 L 224.992188 15.671875 L 227.738281 15.285156 L 230.484375 14.964844 L 233.230469 14.703125 L 235.976562 14.484375 L 238.722656 14.304688 L 241.46875 14.15625 L 244.214844 14.03125 L 246.960938 13.933594 L 249.707031 13.847656 L 252.453125 13.78125 L 255.199219 13.722656 L 257.945312 13.679688 L 260.691406 13.640625 L 263.4375 13.609375 L 266.183594 13.582031 L 268.925781 13.5625 L 271.671875 13.542969 "/>
<g clip-path="url(#clip18)" clip-rule="nonzero">
<path style="fill:none;stroke-width:1.066978;stroke-linecap:round;stroke-linejoin:round;stroke:rgb(20%,20%,20%);stroke-opacity:1;stroke-miterlimit:10;" d="M 43.890625 181.109375 L 282.519531 181.109375 L 282.519531 5.480469 L 43.890625 5.480469 Z M 43.890625 181.109375 "/>
</g>
<g style="fill:rgb(30.196078%,30.196078%,30.196078%);fill-opacity:1;">
  <use xlink:href="#glyph0-1" x="20.957031" y="175.727539"/>
  <use xlink:href="#glyph0-2" x="25.849609" y="175.727539"/>
  <use xlink:href="#glyph0-1" x="28.295898" y="175.727539"/>
  <use xlink:href="#glyph0-1" x="33.188477" y="175.727539"/>
</g>
<g style="fill:rgb(30.196078%,30.196078%,30.196078%);fill-opacity:1;">
  <use xlink:href="#glyph0-1" x="20.957031" y="135.813477"/>
  <use xlink:href="#glyph0-2" x="25.849609" y="135.813477"/>
  <use xlink:href="#glyph0-3" x="28.295898" y="135.813477"/>
  <use xlink:href="#glyph0-4" x="33.188477" y="135.813477"/>
</g>
<g style="fill:rgb(30.196078%,30.196078%,30.196078%);fill-opacity:1;">
  <use xlink:href="#glyph0-1" x="20.957031" y="95.895508"/>
  <use xlink:href="#glyph0-2" x="25.849609" y="95.895508"/>
  <use xlink:href="#glyph0-4" x="28.295898" y="95.895508"/>
  <use xlink:href="#glyph0-1" x="33.188477" y="95.895508"/>
</g>
<g style="fill:rgb(30.196078%,30.196078%,30.196078%);fill-opacity:1;">
  <use xlink:href="#glyph0-1" x="20.957031" y="55.981445"/>
  <use xlink:href="#glyph0-2" x="25.849609" y="55.981445"/>
  <use xlink:href="#glyph0-5" x="28.295898" y="55.981445"/>
  <use xlink:href="#glyph0-4" x="33.188477" y="55.981445"/>
</g>
<g style="fill:rgb(30.196078%,30.196078%,30.196078%);fill-opacity:1;">
  <use xlink:href="#glyph0-6" x="20.957031" y="16.063477"/>
  <use xlink:href="#glyph0-2" x="25.849609" y="16.063477"/>
  <use xlink:href="#glyph0-1" x="28.295898" y="16.063477"/>
  <use xlink:href="#glyph0-1" x="33.188477" y="16.063477"/>
</g>
<path style="fill:none;stroke-width:1.066978;stroke-linecap:butt;stroke-linejoin:round;stroke:rgb(20%,20%,20%);stroke-opacity:1;stroke-miterlimit:10;" d="M 41.152344 173.125 L 43.890625 173.125 "/>
<path style="fill:none;stroke-width:1.066978;stroke-linecap:butt;stroke-linejoin:round;stroke:rgb(20%,20%,20%);stroke-opacity:1;stroke-miterlimit:10;" d="M 41.152344 133.210938 L 43.890625 133.210938 "/>
<path style="fill:none;stroke-width:1.066978;stroke-linecap:butt;stroke-linejoin:round;stroke:rgb(20%,20%,20%);stroke-opacity:1;stroke-miterlimit:10;" d="M 41.152344 93.292969 L 43.890625 93.292969 "/>
<path style="fill:none;stroke-width:1.066978;stroke-linecap:butt;stroke-linejoin:round;stroke:rgb(20%,20%,20%);stroke-opacity:1;stroke-miterlimit:10;" d="M 41.152344 53.378906 L 43.890625 53.378906 "/>
<path style="fill:none;stroke-width:1.066978;stroke-linecap:butt;stroke-linejoin:round;stroke:rgb(20%,20%,20%);stroke-opacity:1;stroke-miterlimit:10;" d="M 41.152344 13.460938 L 43.890625 13.460938 "/>
<path style="fill:none;stroke-width:1.066978;stroke-linecap:butt;stroke-linejoin:round;stroke:rgb(20%,20%,20%);stroke-opacity:1;stroke-miterlimit:10;" d="M 54.738281 183.847656 L 54.738281 181.109375 "/>
<path style="fill:none;stroke-width:1.066978;stroke-linecap:butt;stroke-linejoin:round;stroke:rgb(20%,20%,20%);stroke-opacity:1;stroke-miterlimit:10;" d="M 127.050781 183.847656 L 127.050781 181.109375 "/>
<path style="fill:none;stroke-width:1.066978;stroke-linecap:butt;stroke-linejoin:round;stroke:rgb(20%,20%,20%);stroke-opacity:1;stroke-miterlimit:10;" d="M 199.363281 183.847656 L 199.363281 181.109375 "/>
<path style="fill:none;stroke-width:1.066978;stroke-linecap:butt;stroke-linejoin:round;stroke:rgb(20%,20%,20%);stroke-opacity:1;stroke-miterlimit:10;" d="M 271.671875 183.847656 L 271.671875 181.109375 "/>
<g style="fill:rgb(30.196078%,30.196078%,30.196078%);fill-opacity:1;">
  <use xlink:href="#glyph0-3" x="49.738281" y="192.145508"/>
  <use xlink:href="#glyph0-1" x="54.630859" y="192.145508"/>
</g>
<g style="fill:rgb(30.196078%,30.196078%,30.196078%);fill-opacity:1;">
  <use xlink:href="#glyph0-7" x="122.050781" y="192.145508"/>
  <use xlink:href="#glyph0-1" x="126.943359" y="192.145508"/>
</g>
<g style="fill:rgb(30.196078%,30.196078%,30.196078%);fill-opacity:1;">
  <use xlink:href="#glyph0-8" x="194.363281" y="192.145508"/>
  <use xlink:href="#glyph0-1" x="199.255859" y="192.145508"/>
</g>
<g style="fill:rgb(30.196078%,30.196078%,30.196078%);fill-opacity:1;">
  <use xlink:href="#glyph0-9" x="266.671875" y="192.145508"/>
  <use xlink:href="#glyph0-1" x="271.564453" y="192.145508"/>
</g>
<g style="fill:rgb(0%,0%,0%);fill-opacity:1;">
  <use xlink:href="#glyph1-1" x="153.207031" y="207.147461"/>
  <use xlink:href="#glyph1-2" x="160.433594" y="207.147461"/>
  <use xlink:href="#glyph1-3" x="166.549805" y="207.147461"/>
</g>
<g style="fill:rgb(0%,0%,0%);fill-opacity:1;">
  <use xlink:href="#glyph2-1" x="14.108398" y="111.792969"/>
  <use xlink:href="#glyph2-2" x="14.108398" y="102.629883"/>
  <use xlink:href="#glyph2-3" x="14.108398" y="96.513672"/>
  <use xlink:href="#glyph2-2" x="14.108398" y="94.071289"/>
  <use xlink:href="#glyph2-4" x="14.108398" y="87.955078"/>
  <use xlink:href="#glyph2-5" x="14.108398" y="81.838867"/>
</g>
</g>
</svg>
